<svg width="258" height="91" viewBox="0 0 258 91" fill="none" xmlns="http://www.w3.org/2000/svg">
<g clip-path="url(#clip0_194_794)">
<path d="M257.337 32.5173C256.272 31.1149 254.325 31.107 253.601 31.1219C250.857 31.1787 249.828 32.8574 248.397 32.2121C247.451 31.7837 247.743 30.9767 246.327 29.6889C246.01 29.403 244.849 28.3459 243.315 28.0644C239.932 27.8301 233.745 32.1737 230.674 34.7975C230.718 33.2692 231.133 32.4377 231.526 31.956C231.642 31.8152 232.05 31.3439 232.337 30.6086C232.567 30.0194 232.532 29.737 232.519 29.6591C232.411 28.9614 231.712 28.5593 231.602 28.4963C231.178 28.255 230.464 28.0565 227.991 28.9221C226.17 29.5595 225.259 29.8795 224.444 30.5098C222.879 31.7225 222.235 33.3365 221.884 34.2501C221.668 34.8123 221.458 35.3631 221.254 35.9061C219.851 37.2158 218.087 38.7257 214.432 41.611C211.863 43.6411 208.469 46.2632 204.374 49.2664C204.85 48.3624 205.703 46.7484 206.788 44.7384C211.188 36.5881 212.616 34.5011 211.81 32.0189C211.155 29.9975 209.426 28.9623 208.905 28.6511C206.043 26.9383 202.391 27.6543 200.168 29.2071C198.076 30.6681 198.143 32.2427 196.353 35.6272C196.353 35.6272 192.985 41.9965 186.527 46.3436C183.712 48.2391 177.888 51.377 175.83 49.4938C174.939 48.678 175.056 47.1996 175.093 46.7554C175.37 43.4855 179.048 41.416 180.478 40.6125C184.885 38.1338 187.564 39.1131 190.523 36.2104C191.468 35.2836 192.08 34.3157 192.235 33.1747C192.435 31.7085 191.823 30.3516 191.351 29.7579C189.251 27.1035 181.278 28.6511 175.425 32.0259C171.401 34.3454 166.965 38.348 164.645 42.7318C157.854 47.4286 153.976 50.8586 144.746 55.4408C144.341 55.6847 143.195 56.3894 142.471 55.9558C140.308 54.4249 146.096 48.0975 147.353 45.8461C150.28 45.6853 152.681 45.3137 154.411 44.9797C158.533 44.1814 159.679 43.433 160.184 42.4188C160.73 41.3128 160.482 40.1955 160.482 40.1955C160.434 39.9786 160.219 39.0746 159.455 38.4914C158.724 37.9327 157.892 37.9765 156.421 38.0779C154.506 38.2117 152.952 38.3376 151.876 38.432C154.976 31.8633 156.196 29.3697 156.512 28.8172C156.559 28.735 156.762 28.4421 156.912 28.0058C157.013 27.7112 157.235 26.9374 157.052 26.1374C156.746 24.7954 155.473 24.1274 155.161 23.9639C153.941 23.3248 152.403 23.3213 151.28 23.9753C150.814 24.2463 150.532 24.5698 149.969 25.2176C149.111 26.2047 148.624 27.0992 148.459 27.4078C147.696 28.8286 145.53 33.0707 142.71 38.8569C140.825 39.0536 139.274 39.1375 138.207 39.1778C135.604 39.2774 129.257 39.3684 127.726 40.6116C126.982 41.2167 126.428 41.9738 126.428 41.9738C126.224 42.2536 126.071 42.5036 125.966 42.6907C124.063 45.7867 125.065 49.2752 123.084 50.2973C122.952 50.3654 122.433 50.6251 121.999 50.431C121.115 50.0341 121.141 48.0905 121.581 46.7677C121.872 45.8234 122.351 45.325 123.031 44.2872C136.622 27.5879 119.994 19.2356 113.496 30.0351C112.64 28.9807 110.751 26.996 107.737 26.2056C102.75 24.8968 98.583 27.8825 97.6583 28.5453C95.9993 29.7343 94.9863 31.0572 93.7232 32.707C91.6421 35.4226 91.7924 36.1317 89.8983 38.5876C89.4395 39.1821 87.7359 41.3172 85.0683 42.9819C82.8411 44.372 81.3002 44.588 79.1237 45.2857C70.7581 47.969 66.5163 53.638 64.6947 51.892C64.4972 51.7023 63.9788 51.0457 63.7289 50.1303C63.2936 48.5355 63.9343 47.1069 64.1851 46.5674C64.6248 45.6241 65.1999 44.9963 65.47 44.7235C68.1044 42.0674 82.4164 32.2497 88.3853 26.4784C90.8685 24.0784 99.1005 16.1196 97.0167 8.53317C95.994 4.80773 92.5249 1.32186 88.3504 0.313777C84.098 -0.712663 80.4008 1.02984 79.1316 1.85781C70.7275 7.33537 69.8193 13.0595 65.5356 23.664C63.5584 29.7457 57.6935 38.9163 54.865 46.9539C53.6833 48.6605 51.9745 50.7379 50.1721 51.6341C49.9047 51.767 49.4633 51.9366 49.0874 51.7687C48.2029 51.3709 48.2282 49.4273 48.6687 48.1045C48.9616 47.1602 49.4379 46.6619 50.1179 45.6232C63.7114 28.9238 47.0832 20.5716 40.5845 31.3719C36.9991 25.6793 28.7357 27.587 23.8759 31.2819C18.712 35.0466 19.6734 37.2167 15.1781 41.2C11.6924 44.2881 9.52468 44.3913 6.70407 46.2133C4.91923 47.3657 4.13869 48.1062 3.32756 49.0531C0.785785 52.0196 -0.976327 57.0006 0.592617 61.7831C0.824244 62.493 2.18429 66.4125 5.97947 68.5756C13.5803 72.9061 26.4063 67.606 30.9891 59.5142C32.7739 56.3623 32.0738 54.9766 34.4399 50.8C37.2002 45.9283 40.9875 42.8053 43.8439 40.8923C42.3545 41.9974 36.5525 46.9889 35.8908 54.0096C35.7606 55.3779 35.8279 58.5639 38.0008 60.3999C38.7726 61.0521 40.1825 61.8373 43.1586 61.6712C47.3909 61.4368 51.1091 59.4871 53.7575 57.6248C54.3169 59.3219 55.4235 60.7461 57.2442 61.7953C62.2342 63.8333 69.0169 59.7468 71.9451 57.7245C72.3034 61.8233 75.0279 65.4115 79.3554 66.5384C96.182 69.6073 105.684 48.5049 116.757 39.5555C113.793 42.8962 109.049 50.0682 108.803 52.6736C108.295 67.0202 129.836 61.2095 131.353 47.2039C131.446 47.2013 131.54 47.1987 131.634 47.1961C132.855 47.1637 134.74 47.1244 137.178 47.1235C134.797 51.9156 130.465 56.4244 130.005 59.9776C128.78 76.0186 153.966 59.53 155.617 58.2325C158.254 56.2837 160.954 54.2946 163.807 52.1919C164.393 53.5374 165.543 55.4749 167.645 56.7322C169.64 57.93 171.817 58.125 174.359 57.909C182.875 57.1833 192.178 52.1718 195.493 50.2894C195.181 51.1182 194.867 51.9462 194.555 52.775C191.552 54.4135 186.494 57.1038 180.056 60.1595C165.73 66.9572 160.175 68.1926 157.48 73.985C155.773 77.6483 155.397 82.8854 158.038 86.5182C161.374 91.1083 167.985 91.0165 169.567 90.9947C181.13 90.8364 189.417 79.8009 193.441 74.4457C197.696 68.7802 200.219 63.196 201.761 58.7737C206.191 56.6386 211.13 53.9186 216.304 50.4538C216.338 50.4319 216.368 50.41 216.402 50.3891C215.852 52.2408 215.403 53.8277 215.015 55.1567C213.488 60.399 212.543 62.9258 213.991 64.6875C218.496 68.0842 219.865 66.6521 225.178 56.0808C229.202 48.1237 229.804 45.2787 235.625 39.6298C236.507 38.7738 237.115 38.4757 237.89 38.147C241.527 36.5968 243.96 39.5441 250.446 39.5476C251.441 39.5476 253.528 39.4803 255.586 38.2816C257.111 37.3915 257.541 36.5094 257.656 36.2532C258.149 35.1481 258.165 33.6093 257.336 32.5164L257.337 32.5173ZM149.027 38.7205L152.193 32.3092C152.298 32.0958 152.569 32.0032 152.799 32.1002C153.028 32.1981 153.132 32.4491 153.026 32.6607L149.861 39.0728C149.782 39.2302 149.612 39.322 149.436 39.3194C149.374 39.3177 149.312 39.3072 149.253 39.2809C149.023 39.183 148.922 38.9321 149.027 38.7205ZM91.5154 6.01079C91.5722 5.98281 91.6281 5.96182 91.6858 5.94609C92.2836 5.77297 92.9191 6.14018 93.1586 6.2792C94.7695 7.21209 95.3237 9.62606 95.2126 11.4376C95.0772 13.6654 93.8753 16.0435 93.0126 15.984C92.7862 15.9674 92.6315 15.79 92.614 15.7672C92.1709 15.2435 93.0397 14.3946 93.2242 13.1285C93.2373 13.0376 93.2477 12.9458 93.253 12.8505C93.3544 11.1369 92.0415 9.41011 91.7181 9.01055C91.2313 8.40552 90.7741 8.05755 90.754 7.40269C90.7409 6.88247 91.004 6.25734 91.5154 6.01079ZM83.3962 8.44574C85.7133 8.90475 86.0603 11.3887 85.8584 12.6389C83.4888 21.8105 75.2971 26.1243 68.3518 32.881C71.1881 28.8897 76.6449 8.64946 83.3962 8.44574ZM12.583 60.4296C12.5079 60.8336 10.7055 61.1063 9.17855 60.4296C8.86913 60.2932 7.96272 59.8762 7.35437 58.8812C6.62016 57.6782 6.42612 55.8037 7.29931 55.1488C7.33952 55.1191 7.50034 55.0028 7.70924 54.9416C7.85259 54.8996 8.01954 54.8821 8.18299 54.939C8.9845 55.2152 8.52475 56.8144 9.35686 58.2036C10.182 59.5842 11.7597 59.8867 12.3523 60.1761C12.5131 60.2539 12.6014 60.3317 12.583 60.4296ZM32.0563 40.4455C31.6455 40.7367 30.9969 41.2167 30.24 41.8567C30.24 41.8567 28.8389 43.0387 27.5994 44.3895C25.1486 47.0597 24.368 50.3567 21.7353 53.5147C19.2888 56.4463 15.1134 59.4137 12.6066 58.3033C11.8313 57.9615 11.1015 57.1772 10.841 56.2618C10.3428 54.5097 11.75 52.9211 11.8436 52.8188C12.4204 52.1866 12.7526 52.247 14.2437 51.2896C14.2437 51.2896 15.0785 50.8734 16.4167 49.6791C19.7591 46.6995 23.9974 41.3399 28.8572 39.2425C30.2776 38.6296 32.5501 37.9502 35.8209 38.1828C34.8795 38.6541 33.5466 39.3867 32.0572 40.4473L32.0563 40.4455ZM47.9573 29.1066C48.3471 28.6817 49.0271 28.7796 49.2701 28.8154C50.7578 29.0305 51.8958 30.6768 52.3555 32.0687C52.9211 33.7789 52.7323 35.9218 52.068 36.1352C51.894 36.192 51.7245 36.1037 51.7044 36.0941C51.1799 35.8152 51.6738 34.8053 51.3093 33.7133C50.8731 32.3992 49.3706 31.4978 49.0088 31.2941C48.4625 30.9872 48.0141 30.8639 47.8034 30.3778C47.6373 29.9931 47.647 29.4449 47.9573 29.1066ZM51.7367 52.8371C51.4378 53.6765 49.8793 54.4511 48.3209 54.2561C47.9057 54.2028 47.2449 54.1215 46.6837 53.6109C45.62 52.6456 45.7118 50.8769 46.1812 50.3523C46.2528 50.2719 46.4329 50.0699 46.6698 50.0857C46.8166 50.0953 46.9521 50.1845 47.029 50.2981C47.1776 50.5202 47.0718 50.7825 47.0264 51.0631C46.9346 51.6026 47.0666 52.1691 47.2554 52.4804C47.5403 52.9508 48.188 53.1353 48.7343 53.2C49.9781 53.3512 50.9247 52.5302 51.1843 52.2741C51.3408 52.1211 51.589 52.1246 51.742 52.2793C51.8844 52.4236 51.7682 52.7497 51.7367 52.8371ZM67.6709 53.9221C67.2828 54.598 66.0451 55.1392 64.7917 55.0238C63.5427 54.9084 62.7237 54.1792 62.5087 53.9746C61.2631 52.7934 61.16 51.1007 61.4082 50.5193C61.4493 50.4258 61.5489 50.1958 61.778 50.1023C61.9851 50.0166 62.222 50.0708 62.3671 50.1644C62.7272 50.4004 62.6337 50.9574 62.7167 51.4784C62.8618 52.4043 63.6021 53.4955 64.4334 53.7001C65.1046 53.8671 66.0093 54.0891 67.2312 53.2682C67.4113 53.1466 67.656 53.1938 67.7775 53.3757C67.8885 53.5401 67.7251 53.8268 67.6709 53.9221ZM86.7194 58.7072C86.6617 58.9433 86.437 59.0657 86.3391 59.1155C85.7028 59.4513 84.522 59.2222 83.543 58.6548C83.1742 58.4397 82.4548 58.0122 81.9391 57.1326C81.8211 56.9341 81.135 55.7617 81.5231 54.6697C81.5877 54.4896 81.7573 54.0096 82.1192 53.944C82.3036 53.9116 82.5073 53.9903 82.634 54.1206C82.8525 54.3427 82.8263 54.6915 82.8219 54.7938C82.7852 55.9129 84.3603 58.069 85.6993 58.0839C85.979 58.0856 86.3942 57.9956 86.6092 58.243C86.7115 58.3619 86.7578 58.5455 86.7194 58.7064V58.7072ZM104.967 39.1096C104.218 39.6429 102.361 41.0217 100.51 43.0536C96.9048 45.9362 93.4759 59.864 85.5167 56.9665C84.5158 56.3903 83.9652 55.676 83.751 54.9232C83.3472 53.5033 84.244 52.2129 84.6627 51.6061C86.0988 49.5244 87.7394 49.6756 90.6763 47.2328C91.372 46.6549 91.4332 46.5185 92.684 45.2927C96.8952 41.1633 98.9825 39.0545 101.768 37.903C103.183 37.3207 105.48 36.644 108.733 36.8451C107.79 37.3146 106.457 38.049 104.967 39.1096ZM121.462 27.7619C121.85 27.337 122.532 27.4366 122.774 27.4707C124.262 27.6876 125.4 29.3322 125.86 30.7241C126.425 32.4351 126.237 34.578 125.572 34.7922C125.398 34.8473 125.229 34.7607 125.209 34.7494C124.684 34.4714 125.178 33.4615 124.814 32.3695C124.377 31.0554 122.875 30.1531 122.513 29.9512C121.967 29.6443 121.518 29.521 121.308 29.0331C121.142 28.6493 121.151 28.102 121.462 27.7619ZM123.718 51.8666C123.087 52.56 122.059 52.6491 121.901 52.6605C121.574 52.6841 120.708 52.7348 119.891 52.1569C118.865 51.4339 118.721 50.2929 118.666 49.8662C118.566 49.0793 118.791 48.6562 118.881 48.5102C118.955 48.3921 119.094 48.1727 119.344 48.1097C119.579 48.0503 119.79 48.1604 119.852 48.1919C120.627 48.5915 120.071 50.4231 121.029 51.2231C121.387 51.523 122.018 51.725 122.536 51.5694C123.094 51.4015 123.432 50.8472 123.811 50.9897C123.827 50.9949 123.97 51.0509 124.023 51.1847C124.118 51.4286 123.832 51.7425 123.72 51.8658L123.718 51.8666ZM147.476 56.998C146.425 57.7883 145.482 58.3444 144.653 58.7326H144.652C142.298 59.8351 140.854 59.5789 140.403 59.4487C140.402 59.4478 140.399 59.4478 140.397 59.4469C140.3 59.4181 140.251 59.3962 140.251 59.3962C140.074 59.3158 138.625 58.6338 138.029 57.0697C137.688 56.17 137.461 54.5412 138.324 53.8793C138.702 53.5637 139.141 53.5934 139.141 53.5934C139.161 53.5951 139.535 53.624 139.819 53.8977C139.828 53.9073 139.838 53.9169 139.847 53.9274C140.251 54.3488 140.054 54.939 140.166 55.7346C140.166 55.7381 140.167 55.7433 140.168 55.7486C140.202 55.9322 140.439 57.1186 141.185 57.603C142.326 58.3444 144.419 57.2891 145.321 56.8327C146.393 56.2924 147.336 55.5728 147.758 55.8972C147.846 55.9645 147.954 56.1105 147.965 56.281C147.986 56.6089 147.64 56.8756 147.476 56.998ZM176.994 52.1281C176.964 52.3309 176.674 52.4472 176.566 52.4883C175.96 52.7252 174.54 52.5232 173.44 51.6131C171.788 50.2457 171.42 47.7443 171.922 45.8916C172.399 44.1264 173.621 43.1253 174.203 42.9286C174.323 42.8892 174.651 42.7773 174.8 42.9242C174.967 43.0886 174.969 43.357 174.806 43.5213C174.358 43.976 173.309 45.228 173.222 47.0474C173.149 48.5696 173.551 49.7604 174.418 50.591C175.158 51.301 176.033 51.5571 176.635 51.6472C176.867 51.6813 177.026 51.8955 176.992 52.1281H176.994ZM172.81 84.0387V84.0421C172.81 84.0421 172.809 84.0509 172.809 84.0553C172.809 84.0561 172.809 84.057 172.808 84.0588C172.793 84.1401 172.751 84.224 172.706 84.2948C172.693 84.3149 172.682 84.3333 172.67 84.3508C172.649 84.3814 172.628 84.4085 172.612 84.4295C172.61 84.433 172.607 84.4356 172.606 84.4391C172.604 84.4391 172.603 84.4408 172.602 84.4426C172.599 84.4478 172.596 84.4513 172.594 84.4548C172.588 84.4618 172.582 84.4697 172.576 84.4767C172.256 84.8456 170.949 85.469 169.288 85.6002C169.286 85.6002 169.284 85.6002 169.283 85.6002C168.027 85.6998 166.569 85.5171 165.184 84.7302C162.878 83.4214 161.533 80.8771 161.586 78.7054C161.597 78.2446 161.635 76.6936 162.66 75.9425C162.827 75.8201 163.31 75.4669 163.892 75.5876C164.094 75.6295 164.262 75.7196 164.397 75.8236C164.678 76.0378 164.82 76.3159 164.843 76.3613C165.114 76.9086 164.927 77.4236 164.817 78.0435C164.817 78.0444 164.568 79.438 164.885 80.7792C165.161 81.9482 166.253 83.0489 167.485 83.6627C167.534 83.6872 167.583 83.7117 167.634 83.7353C167.648 83.7414 167.662 83.7484 167.677 83.7545C167.711 83.7702 167.745 83.7851 167.78 83.8C167.847 83.8297 167.916 83.8568 167.983 83.8821C169.965 84.6367 171.736 83.9267 172.232 83.6915C172.442 83.5901 172.693 83.6811 172.795 83.8918C172.797 83.897 172.799 83.9014 172.801 83.9066C172.803 83.911 172.805 83.9154 172.806 83.9197C172.809 83.9285 172.812 83.9381 172.814 83.9486C172.814 83.9565 172.816 83.9643 172.816 83.9722C172.817 83.9853 172.816 83.9984 172.816 84.0124C172.816 84.0212 172.816 84.0299 172.813 84.0387H172.81ZM188.143 66.3889C183.962 71.9583 175.047 83.8384 169.345 82.1178C168.397 81.831 166.843 80.9611 166.361 79.4826C166.277 79.2238 165.904 77.9569 166.994 75.9574C169.112 72.0772 174.107 70.2691 176.493 69.3397C180.34 67.8429 185.472 65.4849 191.493 61.6248C190.761 62.7396 189.623 64.4182 188.143 66.3889ZM204.574 32.3337C204.548 32.3267 204.521 32.3205 204.497 32.3118C204.474 32.3048 204.451 32.2987 204.43 32.2899C204.235 32.2244 204.047 32.1212 203.895 31.9481C203.88 31.9324 203.868 31.9175 203.858 31.9052C203.843 31.8869 203.829 31.8668 203.816 31.8475C203.807 31.8362 203.799 31.8248 203.792 31.8117C203.77 31.7767 203.749 31.74 203.73 31.7015C203.72 31.684 203.712 31.6648 203.704 31.6465C203.694 31.6281 203.687 31.6097 203.68 31.5896C203.673 31.5713 203.666 31.552 203.659 31.5319C203.578 31.295 203.564 31.0336 203.615 30.801C203.627 30.7407 203.643 30.6838 203.665 30.6279C203.672 30.6095 203.68 30.5912 203.687 30.5737C203.695 30.5518 203.706 30.5317 203.716 30.5116C203.721 30.5037 203.724 30.495 203.73 30.4871C203.738 30.4714 203.748 30.4556 203.756 30.4417C203.784 30.3971 203.814 30.3551 203.848 30.3149C203.861 30.3 203.874 30.2852 203.887 30.2703C203.901 30.2554 203.915 30.2423 203.929 30.2274C203.94 30.2143 203.952 30.2038 203.965 30.1933C203.979 30.1785 203.996 30.1654 204.012 30.1523C204.027 30.14 204.041 30.1286 204.056 30.1173C204.071 30.105 204.087 30.0945 204.103 30.0832C204.113 30.0744 204.124 30.0683 204.135 30.0613C204.145 30.0543 204.156 30.0482 204.168 30.0403C204.221 30.0062 204.276 29.9765 204.333 29.9485C204.351 29.938 204.371 29.9293 204.391 29.9206C204.41 29.9118 204.43 29.9031 204.451 29.8952C204.485 29.8803 204.522 29.8664 204.559 29.8524C204.605 29.8349 204.653 29.8191 204.7 29.8069C204.729 29.7982 204.758 29.7903 204.788 29.7815H204.79C204.828 29.7719 204.868 29.7623 204.907 29.7527C204.926 29.7483 204.946 29.744 204.966 29.7405C205.013 29.73 205.061 29.7212 205.11 29.7151C205.19 29.7011 205.271 29.6906 205.353 29.6828C205.394 29.6793 205.435 29.6758 205.476 29.6731C205.516 29.6705 205.557 29.6688 205.597 29.667C205.639 29.6653 205.68 29.6644 205.721 29.6644C205.762 29.6644 205.803 29.6644 205.843 29.6653C205.933 29.667 206.021 29.6723 206.107 29.6801C206.193 29.6871 206.277 29.6976 206.357 29.7116C207.882 29.959 208.962 31.2784 209.305 32.4701C209.559 33.3487 209.545 34.6296 209.13 34.7957C209.121 34.8001 209.112 34.8036 209.102 34.8053C209.094 34.808 209.084 34.8097 209.076 34.8097C209.066 34.8115 209.057 34.8123 209.047 34.8123C208.993 34.8185 208.948 34.8071 208.932 34.8027C208.93 34.8027 208.928 34.8018 208.927 34.8018C208.927 34.801 208.926 34.801 208.925 34.801C208.92 34.8001 208.917 34.7992 208.913 34.7983C208.569 34.7179 208.425 34.2545 208.273 33.9389C208.269 33.9328 208.268 33.9293 208.268 33.9293C207.965 33.3907 207.499 33.1127 207.279 32.9807C206.815 32.7044 206.351 32.6231 205.833 32.5321H205.83C205.668 32.5225 205.478 32.5024 205.245 32.4596C205.233 32.4587 205.221 32.4552 205.208 32.4534C205.193 32.4517 205.179 32.4482 205.163 32.4456C205.118 32.4377 205.068 32.4272 205.009 32.4132C204.965 32.4071 204.92 32.401 204.874 32.3931C204.851 32.3887 204.827 32.3861 204.804 32.3809C204.757 32.3739 204.71 32.3651 204.664 32.3538C204.633 32.3468 204.603 32.3398 204.574 32.3328V32.3337ZM223.969 55.5623C222.969 57.5645 222.469 58.5656 221.986 59.3437C220.939 61.0364 220.476 62.347 219.303 63.3901C219.234 63.4504 218.992 63.662 218.622 63.8526C217.844 64.2486 216.871 64.357 216.173 63.9741C216.047 63.905 215.78 63.7538 215.78 63.5518C215.781 63.3192 215.97 63.1295 216.204 63.1304C216.7 63.1304 217.165 63.0351 217.583 62.848C218.617 62.3837 219.136 61.4526 219.446 60.8956L219.455 60.879C220.115 59.6943 220.923 58.3033 221.861 56.6937C222.224 56.0677 222.607 55.4093 223.009 54.7143C223.072 54.6076 223.332 54.5071 223.586 54.5613C223.797 54.605 223.983 54.7659 224.052 54.9626C224.141 55.2118 224.018 55.4644 223.969 55.5623ZM252.902 35.1778C251.996 36.0984 250.465 36.1002 249.931 36.1011C248.604 36.1011 247.663 35.6228 247.026 35.3072C247.026 35.3072 245.079 34.3411 244.631 32.9929C244.605 32.9142 244.543 32.7262 244.632 32.526C244.747 32.2733 245.033 32.1702 245.074 32.1562C245.324 32.0714 245.56 32.1203 245.645 32.1369C246.451 32.3092 246.819 33.4947 247.795 33.8716C248.794 34.2563 250.439 33.8008 251.307 33.3452C251.517 33.236 251.846 33.0392 252.273 33.0768C252.758 33.1197 253.268 33.4554 253.411 33.9022C253.594 34.4731 253.104 34.9723 252.902 35.176V35.1778Z" fill="white"/>
</g>
<defs>
<clipPath id="clip0_194_794">
<rect width="258" height="91" fill="white"/>
</clipPath>
</defs>
</svg>
