<svg width="146" height="140" viewBox="0 0 146 140" fill="none" xmlns="http://www.w3.org/2000/svg">
<path d="M88.2078 76.0062C88.1601 76.2521 88.1812 76.5255 88.272 76.7723C88.1849 76.5282 88.1629 76.2539 88.2078 76.0062ZM88.2078 76.0062C88.2197 75.9429 88.2353 75.8823 88.2555 75.8236C88.2344 75.8823 88.2188 75.9429 88.2078 76.0062ZM88.4885 77.1577C88.4986 77.1705 88.5124 77.1852 88.5289 77.2017C88.5151 77.187 88.5023 77.1723 88.4885 77.1577ZM88.6307 77.2944C88.772 77.4155 88.9326 77.4944 89.0977 77.5476C89.1215 77.5559 89.1454 77.5623 89.1692 77.5687C89.1958 77.577 89.2234 77.5834 89.2509 77.5898C89.283 77.5971 89.3142 77.6036 89.3463 77.61C89.3958 77.6192 89.4454 77.6274 89.4949 77.6348C89.5188 77.6393 89.5436 77.6421 89.5674 77.6458C89.616 77.6522 89.6637 77.6577 89.7096 77.6632C89.2151 77.5614 88.8793 77.4916 88.6307 77.2944ZM90.5178 74.7611C90.6123 74.7611 90.705 74.7648 90.7949 74.7703C90.705 74.7639 90.6123 74.7611 90.5178 74.7611ZM93.8829 80.0772C93.9003 80.0818 93.9471 80.0919 94.004 80.0845C93.9535 80.0891 93.9085 80.0809 93.8829 80.0772Z" fill="white"/>
<path d="M137.582 45.9273C137.493 42.3142 132.889 43.1335 130.965 45.7218C129.32 48.0229 130.675 50.9232 128.971 51.8719C126.952 52.9546 126.747 50.0323 127.309 48.2046C127.592 47.2073 128.082 46.6724 128.77 45.5677C142.63 27.7202 124.98 19.358 118.422 30.8452C117.499 29.7598 115.468 27.723 112.287 26.966C107.022 25.7127 102.722 28.946 101.767 29.6635C100.055 30.9508 99.024 32.3628 97.7378 34.1244C95.6195 37.0238 95.7938 37.7642 93.8663 40.3865C93.3994 41.0214 91.6627 43.3023 88.9041 45.1126C86.6005 46.6246 84.9887 46.888 82.7218 47.6724C74.0083 50.6892 69.6938 56.7393 67.7406 54.9511C67.5287 54.7566 66.9691 54.0804 66.6847 53.1261C66.1893 51.4636 66.8278 49.9497 67.0773 49.3772C67.5158 48.3771 68.1039 47.7046 68.381 47.4119C71.0809 44.5621 85.862 33.9171 91.9866 27.7184C94.5342 25.1411 102.981 16.5926 100.611 8.68364C99.4487 4.7998 95.7241 1.22609 91.3196 0.269122C86.8326 -0.705277 82.9951 1.21233 81.6833 2.11149C72.9964 8.06064 72.1817 14.0878 67.9424 25.3163C66.0141 31.7444 60.0812 41.5068 57.307 50.0075C56.108 51.8269 54.3649 54.0473 52.4952 55.0309C52.2182 55.1768 51.7586 55.3658 51.3604 55.1979C50.4228 54.8015 50.4027 52.7619 50.8329 51.3636C51.1173 50.3663 51.6054 49.8314 52.2934 48.7257C66.1553 30.8783 48.5055 22.5161 41.947 34.0042C38.048 28.1184 29.4226 30.3186 24.4127 34.3125C19.0844 38.3863 20.1459 40.6406 15.5249 44.9272C11.9415 48.2514 9.66914 48.412 6.75364 50.391C4.90875 51.6434 4.10694 52.4389 3.27944 53.4519C0.684117 56.6255 -1.04518 61.8939 0.716228 66.8732C0.97677 67.6128 2.49782 71.692 6.53255 73.8702C14.6121 78.2302 27.9428 72.3609 32.5574 63.761C34.3546 60.4112 33.5867 58.9744 35.9683 54.5354C38.7471 49.3579 42.646 45.9897 45.5973 43.9143C44.0607 45.1098 38.093 50.4865 37.5682 57.8679C37.4646 59.3065 37.6123 62.6472 39.936 64.5217C40.7617 65.1878 42.2598 65.9768 45.379 65.7309C49.8146 65.3832 53.6686 63.2481 56.4034 61.2305C57.0309 62.9977 58.2262 64.4648 60.162 65.5217C65.4471 67.5394 72.4661 63.0885 75.4899 60.8966C75.9642 65.1878 78.91 68.8872 83.4777 69.9653C101.207 72.7793 110.67 50.4112 122.073 40.7553C119.044 44.3318 114.238 51.9701 114.043 54.7098C113.845 70.6011 138.858 62.3655 137.582 45.9273ZM94.7782 6.16873C94.8369 6.13845 94.8957 6.1146 94.9553 6.09717C95.5782 5.90082 96.2543 6.27149 96.5085 6.41095C98.2212 7.35049 98.8607 9.86998 98.7882 11.7738C98.7001 14.1144 97.4956 16.6385 96.5892 16.5963C96.3516 16.5843 96.1846 16.4018 96.1653 16.3788C95.6874 15.8402 96.5791 14.9282 96.7424 13.596C96.7543 13.5006 96.7626 13.4033 96.7662 13.3033C96.8314 11.5032 95.4122 9.72318 95.0635 9.31121C94.5379 8.68822 94.0498 8.33406 94.0131 7.64776C93.9865 7.10276 94.248 6.44032 94.7782 6.16873ZM86.3171 8.91852C88.7592 9.34424 89.183 11.9417 89.0014 13.2584C86.7354 22.9372 78.2439 27.6606 71.1194 34.9172C73.9991 30.6617 79.2375 9.29562 86.3171 8.91852ZM13.2644 65.1639C13.1956 65.5896 11.3104 65.919 9.69208 65.2456C9.36456 65.1098 8.40313 64.6941 7.74076 63.6647C6.94171 62.4206 6.69218 60.458 7.59306 59.7506C7.63435 59.7185 7.8004 59.5928 8.01782 59.523C8.16736 59.4753 8.34166 59.4533 8.51505 59.5093C9.36273 59.7799 8.91871 61.4682 9.8251 62.9059C10.7242 64.3345 12.3865 64.6134 13.0158 64.9033C13.1865 64.9813 13.2809 65.0602 13.2644 65.1639ZM33.217 43.729C32.7931 44.0446 32.1244 44.5639 31.3455 45.253C31.3455 45.253 29.9033 46.5265 28.6355 47.9743C26.1282 50.8351 25.3888 54.3125 22.7017 57.6889C20.2055 60.8232 15.8955 64.0372 13.2378 62.9325C12.4158 62.5921 11.6315 61.7875 11.3361 60.8333C10.7709 59.0074 12.2094 57.3063 12.3048 57.1971C12.8947 56.52 13.2452 56.5751 14.7864 55.5346C14.7864 55.5346 15.6524 55.0777 17.0276 53.7923C20.4633 50.5855 24.7815 44.8603 29.8299 42.5426C31.3051 41.8655 33.6739 41.0975 37.1114 41.2627C36.1352 41.7802 34.7536 42.5802 33.217 43.729ZM49.6293 31.4499C50.0284 30.9948 50.7439 31.0811 50.9999 31.1132C52.5659 31.3031 53.7998 33.0023 54.3154 34.452C54.9502 36.2329 54.8034 38.4854 54.1117 38.7249C53.931 38.7891 53.7502 38.7001 53.7291 38.6909C53.1723 38.4111 53.6658 37.3394 53.2576 36.2026C52.7686 34.8346 51.1696 33.9253 50.7852 33.7198C50.2045 33.4106 49.7311 33.2923 49.4981 32.7876C49.3146 32.3876 49.3119 31.8123 49.6293 31.4499ZM54.1667 56.2558C53.8732 57.1439 52.2567 57.9935 50.6164 57.8266C50.1797 57.7807 49.4843 57.711 48.8834 57.1889C47.744 56.2016 47.7981 54.3437 48.278 53.7822C48.3513 53.6959 48.5357 53.4794 48.7844 53.4904C48.9385 53.4968 49.0834 53.5877 49.166 53.7051C49.3275 53.9345 49.2229 54.2125 49.1816 54.5079C49.0981 55.0759 49.2504 55.6677 49.4559 55.9897C49.766 56.476 50.4504 56.654 51.0246 56.709C52.3338 56.8375 53.3071 55.9539 53.5732 55.6787C53.7337 55.5144 53.9943 55.5117 54.1585 55.6704C54.3117 55.8181 54.197 56.1631 54.1667 56.2558ZM70.913 57.01C70.5222 57.7284 69.236 58.3257 67.9186 58.2349C66.6049 58.144 65.7278 57.399 65.4976 57.1889C64.1618 55.9796 64.0132 54.2061 64.26 53.5904C64.3013 53.4913 64.3994 53.2473 64.638 53.1436C64.8535 53.0491 65.1031 53.0995 65.2572 53.195C65.6407 53.4335 65.5563 54.0207 65.6554 54.5648C65.8297 55.5328 66.6333 56.6595 67.5103 56.854C68.2186 57.0127 69.1736 57.2238 70.4359 56.3338C70.6222 56.2016 70.88 56.2457 71.0121 56.4338C71.1322 56.6035 70.968 56.9081 70.913 57.01ZM91.016 61.5709C90.9609 61.8196 90.7279 61.9535 90.627 62.0086C89.9674 62.3765 88.7225 62.1646 87.6821 61.593C87.2895 61.3764 86.5244 60.9452 85.9629 60.035C85.8345 59.8295 85.0859 58.6165 85.4666 57.4614C85.5299 57.2705 85.6969 56.7632 86.0749 56.6861C86.2675 56.6476 86.4831 56.7255 86.6189 56.8586C86.8537 57.0861 86.8345 57.4531 86.8326 57.5605C86.8207 58.7358 88.5262 60.9599 89.9307 60.9424C90.2243 60.9379 90.6573 60.8333 90.8894 61.0874C90.9995 61.2094 91.0527 61.4012 91.016 61.5709ZM109.692 40.5709C108.918 41.1489 107.003 42.6399 105.11 44.8162C101.396 47.9275 98.1332 62.6224 89.7124 59.7744C88.6482 59.1937 88.0537 58.4578 87.8106 57.6733C87.3528 56.1934 88.2629 54.818 88.6876 54.1712C90.1444 51.9526 91.8692 52.0719 94.892 49.4377C95.6085 48.8147 95.669 48.6698 96.9516 47.3541C101.271 42.9206 103.41 40.6571 106.305 39.3827C107.776 38.7377 110.17 37.9725 113.588 38.1046C112.611 38.6203 111.228 39.4222 109.692 40.5709ZM126.726 28.268C127.123 27.8129 127.84 27.9009 128.096 27.9312C129.662 28.123 130.896 29.8204 131.412 31.2701C132.047 33.0519 131.9 35.3044 131.208 35.5448C131.027 35.6071 130.847 35.52 130.826 35.509C130.269 35.23 130.762 34.1584 130.354 33.0216C129.864 31.6536 128.266 30.7434 127.882 30.5397C127.301 30.2305 126.828 30.1122 126.595 29.6057C126.411 29.2066 126.408 28.6322 126.726 28.268ZM129.674 53.5023C129.028 54.2446 127.951 54.3629 127.786 54.3795C127.443 54.4125 126.536 54.4859 125.664 53.8996C124.57 53.1656 124.391 51.9719 124.323 51.526C124.199 50.703 124.426 50.2534 124.517 50.0984C124.591 49.9727 124.731 49.7396 124.992 49.6671C125.237 49.5992 125.462 49.7093 125.528 49.7414C126.35 50.1424 125.811 52.0774 126.835 52.8931C127.218 53.1995 127.884 53.3959 128.425 53.2197C129.006 53.0298 129.348 52.4408 129.749 52.5811C129.765 52.5866 129.917 52.6417 129.975 52.7802C130.081 53.0335 129.789 53.3702 129.674 53.5023ZM136.651 47.7055C136.589 47.8706 136.432 47.9734 136.265 47.9734C136.265 47.9734 136.191 47.9761 136.117 47.9459C135.864 47.8422 135.839 47.3183 135.697 46.9182C135.49 46.3356 134.92 45.6934 134.273 45.4365C134.054 45.3493 133.815 45.3043 133.773 45.1346C133.719 44.9126 133.854 44.6878 134.076 44.6336C134.327 44.5722 135.207 44.4144 135.961 44.9805C136.752 45.5732 137.036 46.6944 136.651 47.7055Z" fill="white"/>
<path d="M21.8531 101.804C22.1559 102.138 22.0926 102.986 22.2311 103.692C22.0944 102.86 22.288 102.236 21.8531 101.804ZM20.2541 101.79C20.5321 101.566 20.8568 101.494 21.1045 101.471C21.1045 101.471 20.6431 101.45 20.2541 101.79ZM93.8829 80.0772C93.9003 80.0818 93.9471 80.0919 94.004 80.0845C93.9535 80.0891 93.9086 80.0809 93.8829 80.0772ZM93.8205 80.0515C93.8361 80.0607 93.8498 80.068 93.8627 80.0726C93.8673 80.0735 93.8709 80.0744 93.8755 80.0753C93.8553 80.0689 93.8379 80.0607 93.8205 80.0515ZM90.5178 74.7611C90.6123 74.7611 90.705 74.7648 90.7949 74.7703C90.705 74.7639 90.6123 74.7611 90.5178 74.7611ZM89.9582 77.7063C90.2032 77.7458 90.4041 77.7623 90.5738 77.7687C90.2527 77.721 90.1435 77.7293 89.9582 77.7063ZM88.6307 77.2944C88.772 77.4155 88.9326 77.4944 89.0977 77.5476C89.1216 77.5559 89.1454 77.5623 89.1693 77.5687C89.1959 77.577 89.2234 77.5834 89.2509 77.5898C89.283 77.5971 89.3142 77.6036 89.3463 77.61C89.3959 77.6192 89.4454 77.6274 89.4949 77.6348C89.5188 77.6393 89.5436 77.6421 89.5674 77.6458C89.616 77.6522 89.6637 77.6577 89.7096 77.6632C89.2151 77.5614 88.8794 77.4916 88.6307 77.2944ZM88.4886 77.1577C88.4986 77.1705 88.5124 77.1852 88.5289 77.2017C88.5152 77.187 88.5023 77.1723 88.4886 77.1577ZM88.2078 76.0062C88.2197 75.9429 88.2354 75.8823 88.2555 75.8236C88.2344 75.8823 88.2188 75.9429 88.2078 76.0062ZM88.2078 76.0062C88.1601 76.2521 88.1812 76.5255 88.272 76.7723C88.1849 76.5282 88.1629 76.2539 88.2078 76.0062Z" fill="white"/>
<path d="M88.3472 75.6255C88.3757 75.5787 88.4069 75.5337 88.4408 75.4906C88.406 75.5328 88.3748 75.5778 88.3472 75.6255ZM88.7692 75.1951C88.8234 75.1594 88.8812 75.1263 88.9399 75.0951C88.8803 75.1254 88.8234 75.1584 88.7692 75.1951ZM89.749 74.83C89.8334 74.8144 89.9178 74.8015 90.0032 74.7905C89.9178 74.8006 89.8334 74.8135 89.749 74.83Z" fill="white"/>
<path d="M144.62 76.5108C143.467 75.0648 141.425 75.1043 140.666 75.1373C137.788 75.263 136.748 77.0494 135.231 76.4062C134.228 75.9796 134.515 75.1263 132.998 73.8087C132.66 73.516 131.415 72.4352 129.798 72.1774C126.243 72.0132 119.855 76.7191 116.697 79.5459C116.706 77.9412 117.122 77.0595 117.522 76.5448C117.64 76.3943 118.057 75.8897 118.34 75.1116C118.567 74.4877 118.523 74.1923 118.509 74.1106C118.378 73.3812 117.634 72.9765 117.518 72.9123C117.068 72.6692 116.314 72.4783 113.739 73.4463C111.844 74.1592 110.896 74.5161 110.056 75.1979C108.443 76.5081 107.806 78.2165 107.459 79.1835C107.247 79.7781 107.039 80.3616 106.839 80.936C105.398 82.3434 103.583 83.9702 99.8185 87.0852C97.1718 89.2771 93.6728 92.1095 89.4482 95.3593C89.9261 94.3996 90.7821 92.6856 91.872 90.5506C96.2929 81.8939 97.7415 79.6698 96.836 77.0852C96.0993 74.9804 94.2599 73.9363 93.7058 73.6216C90.6619 71.8939 86.8473 72.7325 84.5511 74.4152C82.3915 75.9979 82.4998 77.6485 80.7035 81.2424C80.7035 81.2424 77.3229 88.0063 70.6506 92.7224C67.7434 94.7785 61.7069 98.2109 59.5024 96.2851C58.5483 95.451 58.6345 93.8968 58.663 93.4298C58.874 89.9927 62.6848 87.7329 64.1646 86.8549C68.7296 84.1482 71.5634 85.1107 74.5991 81.9948C75.5679 80.9993 76.1871 79.9698 76.322 78.7688C76.4963 77.2256 75.822 75.8172 75.3129 75.2052C73.046 72.471 64.7169 74.2868 58.6556 77.9687C54.4897 80.4992 49.9311 84.8051 47.6019 89.4606C40.5892 94.5519 36.6031 98.2439 27.0282 103.274C26.6099 103.54 25.4237 104.306 24.6531 103.869C22.3467 102.315 28.2686 95.5373 29.5327 93.1453C32.5996 92.9059 35.1105 92.4581 36.9178 92.0663C41.2241 91.1295 42.4084 90.3166 42.913 89.2404C43.4598 88.0669 43.1726 86.9007 43.1726 86.9007C43.1167 86.6741 42.8699 85.7309 42.0553 85.1373C41.2745 84.5684 40.4021 84.6345 38.8609 84.7767C36.8545 84.9629 35.228 85.1327 34.1005 85.2575C37.1958 78.2917 38.4159 75.6456 38.7333 75.0584C38.781 74.9712 38.9865 74.6593 39.1342 74.1978C39.2333 73.8858 39.448 73.0692 39.2361 72.2343C38.8829 70.8332 37.5315 70.1635 37.2004 69.9992C35.905 69.3579 34.2904 69.3918 33.128 70.1047C32.6445 70.4002 32.3574 70.7461 31.7822 71.4397C30.9052 72.4958 30.4162 73.4463 30.2501 73.7739C29.4841 75.2832 27.3135 79.7854 24.4934 85.9245C22.5669 86.1328 20.9523 86.275 19.7762 86.3695C13.8672 86.8429 9.66916 86.8622 7.95821 88.8688C7.35548 89.5753 7.14081 90.3864 7.14081 90.3864C6.78027 91.7525 7.33255 92.9893 7.51511 93.3527C7.58575 93.4958 7.73345 93.7922 7.93895 94.0417C8.89029 95.1914 10.8333 95.0537 13.0736 94.9409C14.3543 94.8776 16.3313 94.7904 18.889 94.7308C16.5066 99.8156 12.0682 104.65 11.6719 108.389C10.7728 125.247 36.804 107.342 38.5049 105.941C41.2241 103.833 44.0102 101.681 46.9523 99.4064C47.6 100.804 48.8541 102.809 51.0889 104.077C53.2118 105.286 55.5007 105.438 58.163 105.15C67.081 104.184 76.722 98.7018 80.1558 96.6466C79.8485 97.5237 79.5393 98.3999 79.232 99.2771C76.1202 101.068 70.8772 104.012 64.1958 107.373C49.3275 114.85 43.5277 116.28 40.8397 122.422C39.137 126.307 38.8682 131.81 41.7268 135.558C45.3377 140.294 52.2733 140.038 53.9319 139.977C66.0609 139.532 74.4909 127.755 78.5843 122.04C82.9126 115.993 85.4263 110.073 86.9372 105.397C91.5343 103.05 96.6516 100.077 101.996 96.3181C102.031 96.2942 102.063 96.2704 102.097 96.2474C101.565 98.2036 101.132 99.879 100.758 101.283C99.2818 106.82 98.3506 109.494 99.913 111.307C104.722 114.762 106.124 113.226 111.445 102.008C115.476 93.5628 116.039 90.5634 122.01 84.4968C122.915 83.5775 123.546 83.2499 124.351 82.8866C128.13 81.1727 130.754 84.206 137.56 84.0537C138.604 84.0298 140.792 83.9087 142.923 82.6013C144.501 81.6305 144.932 80.6947 145.045 80.4231C145.536 79.2514 145.516 77.6366 144.62 76.5108ZM31.118 85.6281L34.2858 78.8257C34.3904 78.5991 34.6729 78.4954 34.917 78.5917C35.1601 78.689 35.2738 78.9496 35.1683 79.1743L32.0015 85.9777C31.9226 86.1447 31.7464 86.2447 31.562 86.2465C31.4969 86.2465 31.4317 86.2365 31.3694 86.2108C31.1253 86.1135 31.0134 85.8529 31.118 85.6281ZM29.9327 104.842C28.8483 105.696 27.8722 106.302 27.0117 106.73H27.0108C24.5678 107.943 23.0458 107.71 22.5697 107.583C22.5678 107.583 22.5651 107.583 22.5632 107.581C22.4605 107.554 22.4082 107.532 22.4082 107.532C22.221 107.452 20.6835 106.771 20.0211 105.145C19.6413 104.209 19.3652 102.506 20.2541 101.79C20.6431 101.45 21.1046 101.471 21.1046 101.471C21.1248 101.472 21.5183 101.494 21.8229 101.774C21.833 101.784 21.844 101.794 21.8532 101.804C22.288 102.236 22.0944 102.86 22.2311 103.692C22.2321 103.696 22.233 103.701 22.2339 103.707C22.2733 103.899 22.5513 105.137 23.3449 105.628C24.5604 106.379 26.731 105.221 27.6667 104.721C28.7786 104.128 29.7502 103.35 30.2015 103.68C30.296 103.749 30.4125 103.9 30.4281 104.077C30.4584 104.421 30.1015 104.709 29.9327 104.842ZM60.7877 99.0211C60.7611 99.2349 60.4592 99.3633 60.3482 99.4092C59.718 99.6725 58.2235 99.4945 57.0474 98.566C55.2805 97.1714 54.8337 94.5555 55.3163 92.6003C55.775 90.7368 57.0327 89.6569 57.6382 89.4367C57.7639 89.3927 58.1052 89.267 58.2648 89.4175C58.4437 89.5863 58.4529 89.867 58.2859 90.0441C57.8272 90.5322 56.7566 91.8709 56.7089 93.7821C56.6694 95.3804 57.1199 96.6209 58.0492 97.4714C58.8428 98.1981 59.7675 98.4458 60.4014 98.5256C60.6455 98.5559 60.817 98.777 60.7877 99.0211ZM57.1667 132.6V132.604C57.1667 132.604 57.1658 132.613 57.1648 132.618C57.1648 132.619 57.1648 132.619 57.1639 132.621C57.1502 132.707 57.108 132.796 57.063 132.872C57.0502 132.893 57.0382 132.913 57.0254 132.931C57.0043 132.964 56.9841 132.993 56.9667 133.016C56.9648 133.02 56.9621 133.022 56.9603 133.026C56.9584 133.026 56.9575 133.028 56.9566 133.03C56.9529 133.035 56.9502 133.039 56.9474 133.042C56.9419 133.05 56.9355 133.058 56.93 133.065C56.6034 133.46 55.2466 134.145 53.5062 134.323C53.5044 134.324 53.5026 134.324 53.5007 134.323C52.1861 134.458 50.6522 134.301 49.1789 133.509C46.7276 132.192 45.2551 129.555 45.2588 127.275C45.2588 126.791 45.2616 125.163 46.3184 124.351C46.4909 124.219 46.989 123.836 47.6028 123.949C47.8156 123.988 47.9936 124.078 48.1385 124.185C48.4385 124.403 48.5945 124.691 48.6193 124.738C48.9165 125.306 48.733 125.85 48.6321 126.503C48.6321 126.504 48.4046 127.972 48.7697 129.371C49.088 130.591 50.2596 131.719 51.5669 132.334C51.6192 132.359 51.6714 132.383 51.7256 132.407C51.7402 132.413 51.7549 132.419 51.7705 132.426C51.8063 132.441 51.843 132.456 51.8797 132.471C51.9512 132.5 52.0228 132.527 52.0944 132.553C54.1925 133.297 56.0337 132.508 56.5483 132.25C56.7667 132.139 57.0327 132.228 57.1437 132.446C57.1465 132.452 57.1483 132.456 57.1502 132.462C57.1529 132.466 57.1548 132.471 57.1557 132.475C57.1593 132.485 57.1621 132.495 57.1648 132.506C57.1658 132.514 57.1676 132.522 57.1676 132.53C57.1694 132.544 57.1694 132.558 57.1685 132.573C57.1685 132.582 57.1685 132.591 57.1667 132.6ZM72.8304 113.714C68.5773 119.658 59.5088 132.337 53.4842 130.669C52.4833 130.391 50.8311 129.516 50.2898 127.976C50.1953 127.706 49.7743 126.386 50.8696 124.262C52.9989 120.14 58.1969 118.123 60.6767 117.091C64.6784 115.427 70.0057 112.83 76.2312 108.635C75.489 109.822 74.3358 111.61 72.8304 113.714ZM89.2509 77.5898C89.2234 77.5834 89.1959 77.577 89.1693 77.5687C89.1454 77.5623 89.1216 77.5559 89.0977 77.5476C88.8913 77.4834 88.6922 77.3797 88.5289 77.2017C88.5124 77.1852 88.4987 77.1705 88.4886 77.1577C88.473 77.1384 88.4574 77.1182 88.4427 77.098C88.4335 77.0861 88.4244 77.0742 88.417 77.0613C88.3923 77.0255 88.3693 76.987 88.3491 76.9475C88.3381 76.9292 88.3289 76.9099 88.3207 76.8907C88.3106 76.8714 88.3023 76.8521 88.295 76.8319C88.2868 76.8127 88.2794 76.7925 88.2721 76.7723C88.1813 76.5255 88.1601 76.2521 88.2078 76.0062C88.2189 75.9429 88.2345 75.8823 88.2556 75.8236C88.2629 75.8043 88.2702 75.7851 88.2776 75.7658C88.2858 75.7429 88.2968 75.7217 88.3069 75.6997C88.3115 75.6915 88.3152 75.6823 88.3207 75.674C88.3289 75.6575 88.3381 75.641 88.3473 75.6254C88.3748 75.5777 88.406 75.5327 88.4409 75.4905C88.4537 75.4749 88.4675 75.4584 88.4803 75.4428C88.495 75.4272 88.5088 75.4125 88.5234 75.3969C88.5354 75.3832 88.5473 75.3713 88.5601 75.3602C88.5757 75.3446 88.5922 75.33 88.6087 75.3162C88.6244 75.3034 88.639 75.2905 88.6546 75.2786C88.6702 75.2657 88.6858 75.2538 88.7023 75.2419C88.7133 75.2327 88.7243 75.2254 88.7354 75.218C88.7464 75.2107 88.7574 75.2034 88.7693 75.1951C88.8234 75.1584 88.8803 75.1254 88.9399 75.0951C88.9592 75.0841 88.9794 75.074 89.0005 75.0639C89.0207 75.0547 89.0418 75.0446 89.062 75.0354C89.0986 75.0189 89.1363 75.0033 89.1748 74.9877C89.2234 74.9685 89.2729 74.951 89.3225 74.9364C89.3528 74.9263 89.383 74.9171 89.4133 74.9079C89.4133 74.907 89.4152 74.9079 89.4152 74.9079C89.4555 74.8969 89.4968 74.8859 89.5372 74.8749C89.5573 74.8694 89.5784 74.8648 89.5995 74.8602C89.6491 74.8483 89.6986 74.8382 89.7491 74.8299C89.8335 74.8134 89.9179 74.8006 90.0032 74.7905C90.0463 74.7859 90.0894 74.7813 90.1326 74.7776C90.1748 74.774 90.2179 74.7712 90.2601 74.7685C90.3041 74.7657 90.3472 74.7639 90.3904 74.763C90.4325 74.7611 90.4757 74.7611 90.5179 74.7611C90.6124 74.7611 90.705 74.7639 90.7949 74.7703C90.8857 74.7758 90.9738 74.785 91.0582 74.7969C92.6646 75.0199 93.8297 76.3778 94.2187 77.6201C94.5058 78.5358 94.5232 79.8799 94.0911 80.0643C94.081 80.0689 94.0719 80.0726 94.0618 80.0753C94.0526 80.0781 94.0425 80.0799 94.0343 80.0809C94.0242 80.0827 94.0141 80.0845 94.004 80.0845C93.9471 80.0919 93.9003 80.0818 93.8829 80.0772C93.8811 80.0772 93.8792 80.0763 93.8783 80.0763C93.8774 80.0753 93.8765 80.0753 93.8755 80.0753C93.871 80.0753 93.8673 80.0735 93.8627 80.0726C93.5003 79.9964 93.338 79.5138 93.171 79.1863C93.1673 79.1799 93.1655 79.1762 93.1655 79.1762C92.8352 78.6183 92.3398 78.3376 92.105 78.2045C91.6114 77.9256 91.1224 77.8513 90.5775 77.7687H90.5738C90.4041 77.7623 90.2032 77.7458 89.9582 77.7063C89.9454 77.7054 89.9326 77.7027 89.9197 77.7008C89.9041 77.699 89.8885 77.6962 89.872 77.6935C89.8252 77.6861 89.772 77.6761 89.7096 77.6632C89.6638 77.6577 89.6161 77.6522 89.5674 77.6458C89.5436 77.6421 89.5188 77.6394 89.495 77.6348C89.4454 77.6283 89.3959 77.6201 89.3463 77.61C89.3142 77.6036 89.283 77.5971 89.2509 77.5898ZM110.162 101.493C109.161 103.618 108.66 104.679 108.172 105.508C107.115 107.309 106.66 108.695 105.454 109.817C105.384 109.883 105.135 110.11 104.75 110.319C103.944 110.753 102.926 110.891 102.184 110.506C102.05 110.436 101.766 110.284 101.762 110.072C101.757 109.828 101.951 109.624 102.196 109.619C102.717 109.607 103.202 109.496 103.637 109.29C104.71 108.778 105.232 107.789 105.544 107.197L105.553 107.18C106.217 105.921 107.032 104.442 107.977 102.731C108.342 102.065 108.729 101.365 109.135 100.626C109.197 100.512 109.468 100.401 109.736 100.451C109.959 100.492 110.158 100.657 110.235 100.862C110.334 101.121 110.211 101.389 110.162 101.493ZM140.03 79.4092C139.102 80.3974 137.495 80.4359 136.935 80.4497C135.542 80.4818 134.544 80.0029 133.868 79.6872C133.868 79.6872 131.801 78.7202 131.299 77.3173C131.27 77.2356 131.2 77.0393 131.289 76.8274C131.403 76.5594 131.702 76.4447 131.743 76.4292C132.005 76.3337 132.253 76.3796 132.342 76.3952C133.192 76.5567 133.606 77.7917 134.64 78.1633C135.697 78.5431 137.413 78.0256 138.313 77.5265C138.53 77.4072 138.87 77.1925 139.32 77.2219C139.83 77.2549 140.373 77.5953 140.534 78.0605C140.739 78.655 140.236 79.1909 140.03 79.4092Z" fill="white"/>
<path d="M88.4408 75.4905C88.4069 75.5336 88.3757 75.5786 88.3472 75.6254C88.3748 75.5776 88.406 75.5327 88.4408 75.4905Z" fill="white"/>
<path d="M88.5909 77.2609C88.576 77.2488 88.5621 77.2349 88.5482 77.22C88.5547 77.2265 88.563 77.233 88.5705 77.2405L88.5909 77.2609Z" fill="white"/>
<path d="M88.9399 75.095C88.8812 75.1262 88.8234 75.1592 88.7693 75.195C88.8234 75.1583 88.8803 75.1252 88.9399 75.095Z" fill="white"/>
<path d="M90.0032 74.7905C89.9179 74.8015 89.8335 74.8144 89.7491 74.83C89.8335 74.8135 89.9179 74.8006 90.0032 74.7905Z" fill="white"/>
<path d="M93.8762 80.0756C93.8716 80.0756 93.8679 80.0738 93.8632 80.0728C93.8502 80.0682 93.8363 80.0607 93.8205 80.0515C93.8381 80.0607 93.8558 80.0691 93.8762 80.0756Z" fill="white"/>
</svg>
