<svg width="110" height="24" viewBox="0 0 110 24" xmlns="http://www.w3.org/2000/svg">
<path d="M108 13.5C108.828 13.5 109.5 12.8284 109.5 12C109.5 11.1716 108.828 10.5 108 10.5L108 13.5ZM0.939339 10.9393C0.353554 11.5251 0.353554 12.4749 0.939339 13.0607L10.4853 22.6066C11.0711 23.1924 12.0208 23.1924 12.6066 22.6066C13.1924 22.0208 13.1924 21.0711 12.6066 20.4853L4.12132 12L12.6066 3.51473C13.1924 2.92894 13.1924 1.97919 12.6066 1.39341C12.0208 0.80762 11.0711 0.80762 10.4853 1.39341L0.939339 10.9393ZM108 10.5L2 10.5L2 13.5L108 13.5L108 10.5Z" />
</svg>
