<svg width="636" height="24" viewBox="0 0 636 24" fill="none" xmlns="http://www.w3.org/2000/svg">
<path d="M2 10.5C1.17157 10.5 0.5 11.1716 0.5 12C0.5 12.8284 1.17157 13.5 2 13.5V10.5ZM635.061 13.0607C635.646 12.4749 635.646 11.5251 635.061 10.9393L625.515 1.3934C624.929 0.807611 623.979 0.807611 623.393 1.3934C622.808 1.97919 622.808 2.92893 623.393 3.51472L631.879 12L623.393 20.4853C622.808 21.0711 622.808 22.0208 623.393 22.6066C623.979 23.1924 624.929 23.1924 625.515 22.6066L635.061 13.0607ZM2 13.5H634V10.5H2V13.5Z" fill="white"/>
</svg>
