<svg width="40" height="40" viewBox="0 0 40 40" fill="none" xmlns="http://www.w3.org/2000/svg">
<path d="M30 21.9667V16.6667C29.9976 14.3052 29.1595 12.0208 27.6343 10.218C26.1091 8.41513 23.9951 7.21024 21.6666 6.81667V5C21.6666 4.55797 21.491 4.13405 21.1785 3.82149C20.8659 3.50893 20.442 3.33333 20 3.33333C19.5579 3.33333 19.134 3.50893 18.8214 3.82149C18.5089 4.13405 18.3333 4.55797 18.3333 5V6.81667C16.0049 7.21024 13.8908 8.41513 12.3656 10.218C10.8404 12.0208 10.0024 14.3052 9.99996 16.6667V21.9667C9.02738 22.3105 8.18496 22.9468 7.58819 23.7882C6.99142 24.6297 6.66953 25.6351 6.66663 26.6667V30C6.66663 30.442 6.84222 30.866 7.15478 31.1785C7.46734 31.4911 7.89127 31.6667 8.33329 31.6667H13.5666C13.9504 33.0789 14.7883 34.3257 15.951 35.2146C17.1136 36.1034 18.5365 36.585 20 36.585C21.4635 36.585 22.8863 36.1034 24.049 35.2146C25.2116 34.3257 26.0495 33.0789 26.4333 31.6667H31.6666C32.1087 31.6667 32.5326 31.4911 32.8451 31.1785C33.1577 30.866 33.3333 30.442 33.3333 30V26.6667C33.3304 25.6351 33.0085 24.6297 32.4117 23.7882C31.815 22.9468 30.9725 22.3105 30 21.9667V21.9667ZM13.3333 16.6667C13.3333 14.8986 14.0357 13.2029 15.2859 11.9526C16.5362 10.7024 18.2318 10 20 10C21.7681 10 23.4638 10.7024 24.714 11.9526C25.9642 13.2029 26.6666 14.8986 26.6666 16.6667V21.6667H13.3333V16.6667ZM20 33.3333C19.4182 33.3298 18.8476 33.1741 18.3447 32.8818C17.8418 32.5894 17.4241 32.1705 17.1333 31.6667H22.8666C22.5758 32.1705 22.1581 32.5894 21.6552 32.8818C21.1523 33.1741 20.5817 33.3298 20 33.3333ZM30 28.3333H9.99996V26.6667C9.99996 26.2246 10.1756 25.8007 10.4881 25.4882C10.8007 25.1756 11.2246 25 11.6666 25H28.3333C28.7753 25 29.1992 25.1756 29.5118 25.4882C29.8244 25.8007 30 26.2246 30 26.6667V28.3333Z" fill="white"/>
</svg>
