<svg width="50" height="50" viewBox="0 0 50 50" fill="none" xmlns="http://www.w3.org/2000/svg">
<path d="M43.1833 15.9115H36.3645V6.81982H4.54582C2.04578 6.81982 0 8.8677 0 11.3656V36.3656H4.54582C4.54582 40.1385 7.59169 43.1802 11.3625 43.1802C15.1375 43.1802 18.1813 40.1364 18.1813 36.3656H31.8166C31.8166 40.1385 34.8625 43.1802 38.6354 43.1802C42.4083 43.1802 45.4521 40.1364 45.4521 36.3656H50V25.001L43.1833 15.9115ZM11.3625 39.776C9.47705 39.776 7.95416 38.251 7.95416 36.3656C7.95416 34.4781 9.47495 32.9552 11.3625 32.9552C13.25 32.9552 14.7729 34.476 14.7729 36.3656C14.7729 38.249 13.2499 39.776 11.3625 39.776ZM42.0457 19.3198L46.4999 25.001H36.3624V19.3198H42.0457ZM38.6375 39.776C36.75 39.776 35.2271 38.251 35.2271 36.3656C35.2271 34.4781 36.7479 32.9552 38.6375 32.9552C40.523 32.9552 42.0458 34.476 42.0458 36.3656C42.0457 38.249 40.5229 39.776 38.6375 39.776Z" fill="white"/>
</svg>
