<svg width="40" height="40" viewBox="0 0 40 40" fill="none" xmlns="http://www.w3.org/2000/svg">
<path d="M31.6667 6.66666H28.3334V4.99999C28.3334 4.55797 28.1578 4.13404 27.8452 3.82148C27.5327 3.50892 27.1087 3.33333 26.6667 3.33333C26.2247 3.33333 25.8008 3.50892 25.4882 3.82148C25.1756 4.13404 25 4.55797 25 4.99999V6.66666H15V4.99999C15 4.55797 14.8244 4.13404 14.5119 3.82148C14.1993 3.50892 13.7754 3.33333 13.3334 3.33333C12.8913 3.33333 12.4674 3.50892 12.1549 3.82148C11.8423 4.13404 11.6667 4.55797 11.6667 4.99999V6.66666H8.33337C7.00729 6.66666 5.73552 7.19345 4.79784 8.13113C3.86016 9.06881 3.33337 10.3406 3.33337 11.6667V31.6667C3.33337 32.9927 3.86016 34.2645 4.79784 35.2022C5.73552 36.1399 7.00729 36.6667 8.33337 36.6667H31.6667C32.9928 36.6667 34.2646 36.1399 35.2022 35.2022C36.1399 34.2645 36.6667 32.9927 36.6667 31.6667V11.6667C36.6667 10.3406 36.1399 9.06881 35.2022 8.13113C34.2646 7.19345 32.9928 6.66666 31.6667 6.66666V6.66666ZM33.3334 31.6667C33.3334 32.1087 33.1578 32.5326 32.8452 32.8452C32.5327 33.1577 32.1087 33.3333 31.6667 33.3333H8.33337C7.89135 33.3333 7.46742 33.1577 7.15486 32.8452C6.8423 32.5326 6.66671 32.1087 6.66671 31.6667V20H33.3334V31.6667ZM33.3334 16.6667H6.66671V11.6667C6.66671 11.2246 6.8423 10.8007 7.15486 10.4882C7.46742 10.1756 7.89135 10 8.33337 10H11.6667V11.6667C11.6667 12.1087 11.8423 12.5326 12.1549 12.8452C12.4674 13.1577 12.8913 13.3333 13.3334 13.3333C13.7754 13.3333 14.1993 13.1577 14.5119 12.8452C14.8244 12.5326 15 12.1087 15 11.6667V10H25V11.6667C25 12.1087 25.1756 12.5326 25.4882 12.8452C25.8008 13.1577 26.2247 13.3333 26.6667 13.3333C27.1087 13.3333 27.5327 13.1577 27.8452 12.8452C28.1578 12.5326 28.3334 12.1087 28.3334 11.6667V10H31.6667C32.1087 10 32.5327 10.1756 32.8452 10.4882C33.1578 10.8007 33.3334 11.2246 33.3334 11.6667V16.6667Z" fill="white"/>
</svg>
