<svg width="40" height="40" viewBox="0 0 40 40" fill="none" xmlns="http://www.w3.org/2000/svg">
<path d="M31.6667 10.8333H29.5334L29 9.16667C28.6543 8.18872 28.013 7.34251 27.1649 6.74527C26.3168 6.14803 25.304 5.82934 24.2667 5.83333H15.7334C14.686 5.83529 13.6656 6.16614 12.8163 6.77918C11.967 7.39221 11.3317 8.25648 11 9.25L10.4667 10.9167H8.33337C7.00729 10.9167 5.73552 11.4435 4.79784 12.3811C3.86016 13.3188 3.33337 14.5906 3.33337 15.9167V29.25C3.33337 30.5761 3.86016 31.8479 4.79784 32.7855C5.73552 33.7232 7.00729 34.25 8.33337 34.25H31.6667C32.9928 34.25 34.2646 33.7232 35.2022 32.7855C36.1399 31.8479 36.6667 30.5761 36.6667 29.25V15.9167C36.6778 15.2531 36.5566 14.5939 36.3103 13.9777C36.064 13.3614 35.6974 12.8003 35.232 12.3271C34.7666 11.854 34.2117 11.4782 33.5996 11.2217C32.9874 10.9653 32.3304 10.8332 31.6667 10.8333V10.8333ZM33.3334 29.1667C33.3334 29.6087 33.1578 30.0326 32.8452 30.3452C32.5327 30.6577 32.1087 30.8333 31.6667 30.8333H8.33337C7.89135 30.8333 7.46742 30.6577 7.15486 30.3452C6.8423 30.0326 6.66671 29.6087 6.66671 29.1667V15.8333C6.66671 15.3913 6.8423 14.9674 7.15486 14.6548C7.46742 14.3423 7.89135 14.1667 8.33337 14.1667H11.6667C12.0302 14.1856 12.3898 14.0851 12.6908 13.8805C12.9917 13.6758 13.2174 13.3783 13.3334 13.0333L14.2334 10.3C14.3452 9.96897 14.5582 9.68144 14.8423 9.47807C15.1264 9.2747 15.4673 9.16577 15.8167 9.16667H24.35C24.6994 9.16577 25.0403 9.2747 25.3244 9.47807C25.6085 9.68144 25.8216 9.96897 25.9334 10.3L26.8334 13.0333C26.9403 13.3512 27.1407 13.6295 27.4083 13.8317C27.6759 14.0339 27.9983 14.1506 28.3334 14.1667H31.6667C32.1087 14.1667 32.5327 14.3423 32.8452 14.6548C33.1578 14.9674 33.3334 15.3913 33.3334 15.8333V29.1667ZM20 14.1667C18.6815 14.1667 17.3926 14.5577 16.2962 15.2902C15.1999 16.0227 14.3454 17.0639 13.8408 18.2821C13.3363 19.5003 13.2042 20.8407 13.4615 22.1339C13.7187 23.4271 14.3536 24.615 15.286 25.5474C16.2183 26.4797 17.4062 27.1147 18.6994 27.3719C19.9926 27.6291 21.3331 27.4971 22.5513 26.9925C23.7694 26.4879 24.8106 25.6335 25.5432 24.5371C26.2757 23.4408 26.6667 22.1519 26.6667 20.8333C26.6667 19.0652 25.9643 17.3695 24.7141 16.1193C23.4638 14.869 21.7682 14.1667 20 14.1667V14.1667ZM20 24.1667C19.3408 24.1667 18.6963 23.9712 18.1481 23.6049C17.6 23.2386 17.1727 22.718 16.9204 22.1089C16.6681 21.4999 16.6021 20.8296 16.7308 20.183C16.8594 19.5364 17.1768 18.9425 17.643 18.4763C18.1092 18.0101 18.7031 17.6927 19.3497 17.5641C19.9963 17.4354 20.6666 17.5014 21.2757 17.7537C21.8847 18.006 22.4053 18.4333 22.7716 18.9814C23.1379 19.5296 23.3334 20.1741 23.3334 20.8333C23.3334 21.7174 22.9822 22.5652 22.3571 23.1904C21.7319 23.8155 20.8841 24.1667 20 24.1667Z" fill="white"/>
</svg>
