<svg width="40" height="39" viewBox="0 0 40 39" fill="none" xmlns="http://www.w3.org/2000/svg">
<path d="M24.5334 14.2837L17.3834 21.2712L14.6334 18.59C14.484 18.4199 14.3001 18.2817 14.0933 18.1842C13.8866 18.0867 13.6613 18.0318 13.4318 18.0232C13.2023 18.0146 12.9734 18.0523 12.7595 18.134C12.5456 18.2157 12.3514 18.3396 12.189 18.4979C12.0265 18.6563 11.8994 18.8457 11.8157 19.0542C11.7319 19.2628 11.6932 19.4859 11.7021 19.7097C11.7109 19.9335 11.7671 20.1531 11.8672 20.3547C11.9672 20.5563 12.1089 20.7356 12.2834 20.8812L16.2 24.7162C16.3558 24.8669 16.5405 24.986 16.7435 25.0669C16.9466 25.1477 17.164 25.1887 17.3834 25.1875C17.8206 25.1857 18.2396 25.0165 18.55 24.7162L26.8834 16.5912C27.0396 16.4402 27.1636 16.2605 27.2482 16.0624C27.3328 15.8644 27.3764 15.652 27.3764 15.4375C27.3764 15.223 27.3328 15.0106 27.2482 14.8126C27.1636 14.6145 27.0396 14.4348 26.8834 14.2837C26.5711 13.9811 26.1487 13.8112 25.7084 13.8112C25.2681 13.8112 24.8457 13.9811 24.5334 14.2837V14.2837ZM20 3.25C16.7037 3.25 13.4814 4.20305 10.7405 5.98862C7.99972 7.77419 5.86352 10.3121 4.60206 13.2814C3.3406 16.2507 3.01054 19.518 3.65363 22.6702C4.29671 25.8224 5.88406 28.7179 8.21494 30.9905C10.5458 33.2631 13.5155 34.8108 16.7485 35.4378C19.9816 36.0648 23.3327 35.743 26.3781 34.513C29.4235 33.2831 32.0265 31.2003 33.8579 28.528C35.6892 25.8557 36.6667 22.7139 36.6667 19.5C36.6667 17.366 36.2356 15.2529 35.398 13.2814C34.5605 11.3099 33.3328 9.51847 31.7852 8.00951C30.2375 6.50056 28.4002 5.3036 26.3781 4.48696C24.356 3.67032 22.1887 3.25 20 3.25V3.25ZM20 32.5C17.363 32.5 14.7851 31.7376 12.5924 30.3091C10.3998 28.8806 8.69082 26.8503 7.68165 24.4749C6.67249 22.0994 6.40844 19.4856 6.92291 16.9638C7.43738 14.4421 8.70726 12.1257 10.572 10.3076C12.4367 8.48953 14.8124 7.2514 17.3988 6.74979C19.9853 6.24818 22.6661 6.50563 25.1025 7.48957C27.5388 8.47351 29.6212 10.1397 31.0863 12.2776C32.5514 14.4154 33.3334 16.9288 33.3334 19.5C33.3334 22.9478 31.9286 26.2544 29.4281 28.6924C26.9277 31.1304 23.5363 32.5 20 32.5V32.5Z" fill="white"/>
</svg>
