<svg width="40" height="40" viewBox="0 0 40 40" fill="none" xmlns="http://www.w3.org/2000/svg">
<path d="M31.1833 12.0167C31.0284 11.8604 30.844 11.7365 30.6409 11.6518C30.4378 11.5672 30.22 11.5237 30 11.5237C29.7799 11.5237 29.5621 11.5672 29.359 11.6518C29.1559 11.7365 28.9716 11.8604 28.8166 12.0167L16.4 24.45L11.1833 19.2167C11.0224 19.0613 10.8325 18.9391 10.6244 18.8571C10.4163 18.7751 10.1941 18.7348 9.97049 18.7387C9.74686 18.7426 9.52618 18.7905 9.32105 18.8796C9.11592 18.9688 8.93035 19.0975 8.77496 19.2583C8.61956 19.4192 8.49737 19.6091 8.41536 19.8172C8.33336 20.0253 8.29314 20.2475 8.29701 20.4711C8.30088 20.6948 8.34876 20.9154 8.43791 21.1206C8.52707 21.3257 8.65575 21.5113 8.81662 21.6667L15.2166 28.0667C15.3716 28.2229 15.5559 28.3469 15.759 28.4315C15.9621 28.5161 16.1799 28.5597 16.4 28.5597C16.62 28.5597 16.8378 28.5161 17.0409 28.4315C17.244 28.3469 17.4284 28.2229 17.5833 28.0667L31.1833 14.4667C31.3525 14.3106 31.4875 14.1212 31.5798 13.9103C31.6722 13.6995 31.7198 13.4718 31.7198 13.2417C31.7198 13.0115 31.6722 12.7838 31.5798 12.573C31.4875 12.3622 31.3525 12.1727 31.1833 12.0167V12.0167Z" fill="white"/>
</svg>
