<svg width="40" height="40" viewBox="0 0 40 40" fill="none" xmlns="http://www.w3.org/2000/svg">
<path d="M28.3333 6.66666H26.3666C26.0228 5.69408 25.3865 4.85166 24.5451 4.25489C23.7036 3.65813 22.6982 3.33623 21.6666 3.33333H18.3333C17.3017 3.33623 16.2963 3.65813 15.4549 4.25489C14.6134 4.85166 13.9771 5.69408 13.6333 6.66666H11.6666C10.3405 6.66666 9.06877 7.19345 8.13109 8.13113C7.19341 9.06881 6.66663 10.3406 6.66663 11.6667V31.6667C6.66663 32.9927 7.19341 34.2645 8.13109 35.2022C9.06877 36.1399 10.3405 36.6667 11.6666 36.6667H28.3333C29.6594 36.6667 30.9311 36.1399 31.8688 35.2022C32.8065 34.2645 33.3333 32.9927 33.3333 31.6667V11.6667C33.3333 10.3406 32.8065 9.06881 31.8688 8.13113C30.9311 7.19345 29.6594 6.66666 28.3333 6.66666V6.66666ZM16.6666 8.33333C16.6666 7.8913 16.8422 7.46738 17.1548 7.15482C17.4673 6.84226 17.8913 6.66666 18.3333 6.66666H21.6666C22.1087 6.66666 22.5326 6.84226 22.8451 7.15482C23.1577 7.46738 23.3333 7.8913 23.3333 8.33333V10H16.6666V8.33333ZM30 31.6667C30 32.1087 29.8244 32.5326 29.5118 32.8452C29.1992 33.1577 28.7753 33.3333 28.3333 33.3333H11.6666C11.2246 33.3333 10.8007 33.1577 10.4881 32.8452C10.1756 32.5326 9.99996 32.1087 9.99996 31.6667V11.6667C9.99996 11.2246 10.1756 10.8007 10.4881 10.4882C10.8007 10.1756 11.2246 10 11.6666 10H13.3333V11.6667C13.3333 12.1087 13.5089 12.5326 13.8214 12.8452C14.134 13.1577 14.5579 13.3333 15 13.3333H25C25.442 13.3333 25.8659 13.1577 26.1785 12.8452C26.491 12.5326 26.6666 12.1087 26.6666 11.6667V10H28.3333C28.7753 10 29.1992 10.1756 29.5118 10.4882C29.8244 10.8007 30 11.2246 30 11.6667V31.6667Z" fill="white"/>
</svg>
