<svg width="40" height="39" viewBox="0 0 40 39" fill="none" xmlns="http://www.w3.org/2000/svg">
<path d="M25.1634 20.5302L21.6667 18.5624V11.375C21.6667 10.944 21.4911 10.5307 21.1786 10.226C20.866 9.9212 20.4421 9.75 20 9.75C19.558 9.75 19.1341 9.9212 18.8215 10.226C18.509 10.5307 18.3334 10.944 18.3334 11.375V19.5C18.3334 19.7852 18.4104 20.0655 18.5567 20.3125C18.703 20.5595 18.9134 20.7646 19.1667 20.9072L23.4967 23.3447C23.6863 23.4531 23.8961 23.5239 24.1138 23.5529C24.3316 23.5819 24.5531 23.5687 24.7656 23.5139C24.9781 23.4591 25.1774 23.3639 25.352 23.2337C25.5266 23.1036 25.6731 22.941 25.783 22.7554C25.8929 22.5698 25.9641 22.3649 25.9924 22.1523C26.0207 21.9398 26.0057 21.7239 25.9481 21.5171C25.8905 21.3103 25.7915 21.1166 25.6568 20.9473C25.5222 20.7779 25.3545 20.6362 25.1634 20.5302V20.5302ZM20 3.25C16.7037 3.25 13.4814 4.20305 10.7405 5.98862C7.99972 7.77419 5.86352 10.3121 4.60206 13.2814C3.3406 16.2507 3.01054 19.518 3.65363 22.6702C4.29671 25.8224 5.88406 28.7179 8.21494 30.9905C10.5458 33.2631 13.5155 34.8108 16.7485 35.4378C19.9816 36.0648 23.3327 35.743 26.3781 34.513C29.4235 33.2831 32.0265 31.2003 33.8579 28.528C35.6892 25.8557 36.6667 22.7139 36.6667 19.5C36.6619 15.1917 34.9044 11.0612 31.7798 8.01474C28.6552 4.9683 24.4188 3.25473 20 3.25V3.25ZM20 32.5C17.363 32.5 14.7851 31.7376 12.5924 30.3091C10.3998 28.8806 8.69082 26.8503 7.68165 24.4749C6.67249 22.0994 6.40844 19.4856 6.92291 16.9638C7.43738 14.4421 8.70726 12.1257 10.572 10.3076C12.4367 8.48953 14.8124 7.2514 17.3988 6.74979C19.9853 6.24818 22.6661 6.50563 25.1025 7.48957C27.5388 8.47351 29.6212 10.1397 31.0863 12.2776C32.5514 14.4154 33.3334 16.9288 33.3334 19.5C33.329 22.9465 31.9228 26.2506 29.4233 28.6876C26.9237 31.1247 23.5349 32.4957 20 32.5Z" fill="white"/>
</svg>
