<svg width="50" height="50" viewBox="0 0 50 50" fill="none" xmlns="http://www.w3.org/2000/svg">
<path d="M31.2502 8.33331C35.6704 8.33331 39.9097 10.0893 43.0353 13.2149C46.1609 16.3405 47.9168 20.5797 47.9168 25C47.9168 29.4203 46.1609 33.6595 43.0353 36.7851C39.9097 39.9107 35.6704 41.6666 31.2502 41.6666C26.8299 41.6666 22.5907 39.9107 19.465 36.7851C16.3394 33.6595 14.5835 29.4203 14.5835 25C14.5835 20.5797 16.3394 16.3405 19.465 13.2149C22.5907 10.0893 26.8299 8.33331 31.2502 8.33331ZM31.2502 12.5C27.935 12.5 24.7555 13.8169 22.4113 16.1611C20.0671 18.5054 18.7502 21.6848 18.7502 25C18.7502 28.3152 20.0671 31.4946 22.4113 33.8388C24.7555 36.183 27.935 37.5 31.2502 37.5C34.5654 37.5 37.7448 36.183 40.089 33.8388C42.4332 31.4946 43.7502 28.3152 43.7502 25C43.7502 21.6848 42.4332 18.5054 40.089 16.1611C37.7448 13.8169 34.5654 12.5 31.2502 12.5ZM29.1668 16.6666H32.2918V24.5416L37.146 29.3958L34.9377 31.6041L29.1668 25.8333V16.6666ZM4.16683 37.5C3.6143 37.5 3.08439 37.2805 2.69369 36.8898C2.30299 36.4991 2.0835 35.9692 2.0835 35.4166C2.0835 34.8641 2.30299 34.3342 2.69369 33.9435C3.08439 33.5528 3.6143 33.3333 4.16683 33.3333H12.146C12.7918 34.8125 13.6252 36.2083 14.5835 37.5H4.16683ZM6.25016 27.0833C5.69763 27.0833 5.16772 26.8638 4.77702 26.4731C4.38632 26.0824 4.16683 25.5525 4.16683 25C4.16683 24.4474 4.38632 23.9175 4.77702 23.5268C5.16772 23.1361 5.69763 22.9166 6.25016 22.9166H10.521L10.4168 25L10.521 27.0833H6.25016ZM8.3335 16.6666C7.78096 16.6666 7.25106 16.4472 6.86036 16.0565C6.46966 15.6658 6.25016 15.1358 6.25016 14.5833C6.25016 14.0308 6.46966 13.5009 6.86036 13.1102C7.25106 12.7195 7.78096 12.5 8.3335 12.5H14.5835C13.6252 13.7916 12.7918 15.1875 12.146 16.6666H8.3335Z" fill="white"/>
</svg>
