<svg width="39" height="40" viewBox="0 0 39 40" fill="none" xmlns="http://www.w3.org/2000/svg">
<path d="M34.645 15.9167L31.5738 14.8667L33.02 11.9C33.1666 11.5895 33.2156 11.2399 33.1603 10.8996C33.105 10.5593 32.9481 10.245 32.7113 10L29.25 6.45C29.0099 6.20348 28.7005 6.04035 28.3653 5.98354C28.0301 5.92674 27.6859 5.97913 27.3813 6.13333L24.4888 7.61667L23.465 4.46667C23.3569 4.13832 23.1517 3.85271 22.8779 3.64958C22.6041 3.44645 22.2754 3.33591 21.9375 3.33333H17.0625C16.7218 3.33243 16.3895 3.44137 16.1125 3.64474C15.8355 3.84811 15.6278 4.13563 15.5188 4.46667L14.495 7.61667L11.6025 6.13333C11.2997 5.98297 10.9589 5.93267 10.6271 5.98939C10.2953 6.04611 9.98885 6.20705 9.75 6.45L6.28876 10C6.04839 10.2463 5.88934 10.5636 5.83396 10.9074C5.77858 11.2512 5.82965 11.6042 5.98001 11.9167L7.42626 14.8833L4.35501 15.9333C4.03487 16.0442 3.7564 16.2547 3.55835 16.5355C3.36029 16.8163 3.25251 17.1534 3.25001 17.5V22.5C3.24913 22.8494 3.35534 23.1903 3.55362 23.4744C3.75191 23.7585 4.03225 23.9715 4.35501 24.0833L7.42626 25.1333L5.98001 28.1C5.8334 28.4105 5.78436 28.7601 5.83966 29.1004C5.89497 29.4407 6.05188 29.755 6.28876 30L9.75 33.55C9.99012 33.7965 10.2995 33.9597 10.6347 34.0165C10.97 34.0733 11.3141 34.0209 11.6188 33.8667L14.5113 32.3833L15.535 35.5333C15.644 35.8644 15.8517 36.1519 16.1287 36.3553C16.4058 36.5586 16.7381 36.6676 17.0788 36.6667H21.9538C22.2944 36.6676 22.6268 36.5586 22.9038 36.3553C23.1808 36.1519 23.3885 35.8644 23.4975 35.5333L24.5213 32.3833L27.4138 33.8667C27.7146 34.0132 28.0521 34.0615 28.3805 34.0048C28.7089 33.9482 29.0125 33.7894 29.25 33.55L32.7113 30C32.9516 29.7537 33.1107 29.4364 33.166 29.0926C33.2214 28.7488 33.1704 28.3958 33.02 28.0833L31.5738 25.1167L34.645 24.0667C34.9651 23.9558 35.2436 23.7453 35.4417 23.4645C35.6397 23.1837 35.7475 22.8466 35.75 22.5V17.5C35.7509 17.1506 35.6447 16.8097 35.4464 16.5256C35.2481 16.2415 34.9678 16.0285 34.645 15.9167V15.9167ZM32.5 21.3L30.55 21.9667C30.1016 22.1158 29.6902 22.3633 29.3443 22.6918C28.9985 23.0204 28.7265 23.4222 28.5471 23.8693C28.3678 24.3164 28.2854 24.7982 28.3058 25.2813C28.3262 25.7643 28.4487 26.2371 28.665 26.6667L29.5913 28.5667L27.8038 30.4L26 29.4C25.5833 29.1871 25.1268 29.0684 24.6615 29.0522C24.1962 29.0359 23.7329 29.1223 23.303 29.3057C22.8731 29.489 22.4866 29.7649 22.1697 30.1147C21.8529 30.4646 21.6129 30.8801 21.4663 31.3333L20.8163 33.3333H18.2325L17.5825 31.3333C17.4371 30.8734 17.1958 30.4515 16.8755 30.0968C16.5551 29.742 16.1634 29.463 15.7274 29.2791C15.2915 29.0952 14.8217 29.0107 14.3507 29.0316C13.8798 29.0525 13.4189 29.1782 13 29.4L11.1475 30.35L9.36001 28.5167L10.335 26.6667C10.5513 26.2371 10.6738 25.7643 10.6942 25.2813C10.7146 24.7982 10.6322 24.3164 10.4529 23.8693C10.2735 23.4222 10.0015 23.0204 9.65567 22.6918C9.30981 22.3633 8.89841 22.1158 8.45 21.9667L6.50001 21.3V18.7L8.45 18.0333C8.89841 17.8842 9.30981 17.6367 9.65567 17.3082C10.0015 16.9796 10.2735 16.5778 10.4529 16.1307C10.6322 15.6836 10.7146 15.2018 10.6942 14.7187C10.6738 14.2357 10.5513 13.7629 10.335 13.3333L9.40875 11.4833L11.1963 9.65L13 10.6C13.4189 10.8218 13.8798 10.9475 14.3507 10.9684C14.8217 10.9893 15.2915 10.9048 15.7274 10.7209C16.1634 10.537 16.5551 10.258 16.8755 9.90324C17.1958 9.54852 17.4371 9.12657 17.5825 8.66667L18.2325 6.66667H20.7675L21.4175 8.66667C21.563 9.12657 21.8042 9.54852 22.1245 9.90324C22.4449 10.258 22.8366 10.537 23.2726 10.7209C23.7085 10.9048 24.1783 10.9893 24.6493 10.9684C25.1202 10.9475 25.5811 10.8218 26 10.6L27.8525 9.65L29.64 11.4833L28.665 13.3333C28.4574 13.7607 28.3417 14.2289 28.3259 14.7061C28.31 15.1834 28.3943 15.6585 28.573 16.0995C28.7518 16.5404 29.0208 16.9368 29.3619 17.2618C29.7029 17.5868 30.1081 17.8329 30.55 17.9833L32.5 18.65V21.3ZM19.5 13.3333C18.2144 13.3333 16.9577 13.7243 15.8888 14.4569C14.8199 15.1894 13.9868 16.2306 13.4948 17.4488C13.0028 18.667 12.8741 20.0074 13.1249 21.3006C13.3757 22.5938 13.9948 23.7817 14.9038 24.714C15.8129 25.6464 16.971 26.2813 18.2319 26.5386C19.4928 26.7958 20.7997 26.6638 21.9874 26.1592C23.1752 25.6546 24.1903 24.8001 24.9046 23.7038C25.6188 22.6075 26 21.3185 26 20C26 18.2319 25.3152 16.5362 24.0962 15.286C22.8772 14.0357 21.2239 13.3333 19.5 13.3333V13.3333ZM19.5 23.3333C18.8572 23.3333 18.2289 23.1378 17.6944 22.7716C17.1599 22.4053 16.7434 21.8847 16.4974 21.2756C16.2514 20.6665 16.187 19.9963 16.3125 19.3497C16.4379 18.7031 16.7474 18.1092 17.2019 17.643C17.6564 17.1768 18.2355 16.8593 18.866 16.7307C19.4964 16.6021 20.1499 16.6681 20.7437 16.9204C21.3376 17.1727 21.8452 17.5999 22.2023 18.1481C22.5594 18.6963 22.75 19.3407 22.75 20C22.75 20.8841 22.4076 21.7319 21.7981 22.357C21.1886 22.9821 20.362 23.3333 19.5 23.3333Z" fill="white"/>
</svg>
