<svg width="39" height="40" viewBox="0 0 39 40" fill="none" xmlns="http://www.w3.org/2000/svg">
<path d="M30.875 3.33333H8.125C6.83207 3.33333 5.59209 3.86011 4.67785 4.79779C3.76361 5.73548 3.25 7.00725 3.25 8.33333V25C3.25 26.3261 3.76361 27.5978 4.67785 28.5355C5.59209 29.4732 6.83207 30 8.125 30H26.9588L32.9713 36.1833C33.1231 36.3378 33.3032 36.46 33.5012 36.5429C33.6991 36.6259 33.9111 36.6679 34.125 36.6667C34.3382 36.6723 34.5496 36.6266 34.7425 36.5333C35.0393 36.4083 35.2933 36.196 35.4726 35.9231C35.6519 35.6502 35.7484 35.329 35.75 35V8.33333C35.75 7.00725 35.2364 5.73548 34.3221 4.79779C33.4079 3.86011 32.1679 3.33333 30.875 3.33333ZM32.5 30.9833L28.7787 27.15C28.6269 26.9955 28.4468 26.8733 28.2488 26.7904C28.0509 26.7074 27.8389 26.6654 27.625 26.6667H8.125C7.69402 26.6667 7.2807 26.4911 6.97595 26.1785C6.67121 25.8659 6.5 25.442 6.5 25V8.33333C6.5 7.8913 6.67121 7.46738 6.97595 7.15482C7.2807 6.84226 7.69402 6.66666 8.125 6.66666H30.875C31.306 6.66666 31.7193 6.84226 32.024 7.15482C32.3288 7.46738 32.5 7.8913 32.5 8.33333V30.9833Z" fill="white"/>
</svg>
