<svg width="40" height="40" viewBox="0 0 40 40" fill="none" xmlns="http://www.w3.org/2000/svg">
<path d="M31.6667 6.66667H8.33337C7.00729 6.66667 5.73552 7.19346 4.79784 8.13114C3.86016 9.06882 3.33337 10.3406 3.33337 11.6667V28.3333C3.33337 29.6594 3.86016 30.9312 4.79784 31.8689C5.73552 32.8066 7.00729 33.3333 8.33337 33.3333H31.6667C32.9928 33.3333 34.2646 32.8066 35.2022 31.8689C36.1399 30.9312 36.6667 29.6594 36.6667 28.3333V11.6667C36.6667 10.3406 36.1399 9.06882 35.2022 8.13114C34.2646 7.19346 32.9928 6.66667 31.6667 6.66667V6.66667ZM8.33337 10H31.6667C32.1087 10 32.5327 10.1756 32.8452 10.4882C33.1578 10.8007 33.3334 11.2246 33.3334 11.6667L20 19.8L6.66671 11.6667C6.66671 11.2246 6.8423 10.8007 7.15486 10.4882C7.46742 10.1756 7.89135 10 8.33337 10V10ZM33.3334 28.3333C33.3334 28.7754 33.1578 29.1993 32.8452 29.5119C32.5327 29.8244 32.1087 30 31.6667 30H8.33337C7.89135 30 7.46742 29.8244 7.15486 29.5119C6.8423 29.1993 6.66671 28.7754 6.66671 28.3333V15.4667L19.1334 23.0833C19.3867 23.2296 19.6741 23.3066 19.9667 23.3066C20.2593 23.3066 20.5467 23.2296 20.8 23.0833L33.3334 15.4667V28.3333Z" fill="white"/>
</svg>
