<svg width="40" height="40" viewBox="0 0 40 40" fill="none" xmlns="http://www.w3.org/2000/svg">
<path d="M18.2334 10.1333C18.818 10.0437 19.4086 9.99914 20 9.99999C25.3 9.99999 30.2834 13.8167 33.1834 20C32.7398 20.941 32.2389 21.8538 31.6834 22.7333C31.507 23.0063 31.4143 23.325 31.4167 23.65C31.4204 24.0137 31.543 24.3662 31.7658 24.6538C31.9886 24.9413 32.2993 25.1481 32.6506 25.2425C33.0019 25.3369 33.3744 25.3139 33.7113 25.1768C34.0483 25.0397 34.3311 24.7962 34.5167 24.4833C35.2932 23.2632 35.9677 21.9811 36.5334 20.65C36.6228 20.442 36.6689 20.218 36.6689 19.9917C36.6689 19.7653 36.6228 19.5413 36.5334 19.3333C33.1667 11.5167 26.8334 6.66666 20 6.66666C19.2178 6.66272 18.4368 6.72966 17.6667 6.86666C17.4478 6.90387 17.2384 6.98382 17.0505 7.10195C16.8625 7.22009 16.6996 7.37409 16.5712 7.55516C16.4427 7.73624 16.3512 7.94084 16.3018 8.15729C16.2524 8.37374 16.2461 8.59779 16.2834 8.81666C16.3206 9.03553 16.4005 9.24493 16.5187 9.4329C16.6368 9.62087 16.7908 9.78373 16.9719 9.91218C17.1529 10.0406 17.3575 10.1322 17.574 10.1816C17.7904 10.2309 18.0145 10.2372 18.2334 10.2V10.1333ZM6.18336 3.81666C6.02796 3.66126 5.84348 3.53799 5.64044 3.45389C5.4374 3.36979 5.21979 3.32651 5.00002 3.32651C4.78026 3.32651 4.56265 3.36979 4.35961 3.45389C4.15657 3.53799 3.97209 3.66126 3.81669 3.81666C3.50285 4.1305 3.32654 4.55616 3.32654 4.99999C3.32654 5.44383 3.50285 5.86949 3.81669 6.18333L8.98336 11.3333C6.62598 13.6025 4.74979 16.3233 3.46669 19.3333C3.37492 19.5436 3.32755 19.7706 3.32755 20C3.32755 20.2294 3.37492 20.4564 3.46669 20.6667C6.83336 28.4833 13.1667 33.3333 20 33.3333C22.9952 33.3126 25.9196 32.4208 28.4167 30.7667L33.8167 36.1833C33.9716 36.3395 34.156 36.4635 34.3591 36.5481C34.5622 36.6328 34.78 36.6763 35 36.6763C35.22 36.6763 35.4379 36.6328 35.641 36.5481C35.8441 36.4635 36.0284 36.3395 36.1834 36.1833C36.3396 36.0284 36.4636 35.8441 36.5482 35.641C36.6328 35.4379 36.6764 35.22 36.6764 35C36.6764 34.78 36.6328 34.5621 36.5482 34.359C36.4636 34.1559 36.3396 33.9716 36.1834 33.8167L6.18336 3.81666ZM16.7834 19.1333L20.8667 23.2167C20.585 23.2974 20.293 23.3367 20 23.3333C19.116 23.3333 18.2681 22.9821 17.643 22.357C17.0179 21.7319 16.6667 20.884 16.6667 20C16.6633 19.707 16.7026 19.415 16.7834 19.1333ZM20 30C14.7 30 9.71669 26.1833 6.83336 20C7.91017 17.6229 9.43848 15.4776 11.3334 13.6833L14.2834 16.6667C13.5904 17.9313 13.3263 19.3866 13.5305 20.8141C13.7347 22.2416 14.3962 23.5644 15.4159 24.5841C16.4356 25.6038 17.7584 26.2654 19.1859 26.4696C20.6134 26.6738 22.0687 26.4096 23.3334 25.7167L25.9834 28.3333C24.1685 29.4015 22.1057 29.9761 20 30Z" fill="white"/>
</svg>
