<svg width="40" height="40" viewBox="0 0 40 40" fill="none" xmlns="http://www.w3.org/2000/svg">
<path d="M36.5333 19.3333C33.1667 11.5167 26.8333 6.66667 20 6.66667C13.1667 6.66667 6.83332 11.5167 3.46666 19.3333C3.37488 19.5436 3.32751 19.7706 3.32751 20C3.32751 20.2294 3.37488 20.4564 3.46666 20.6667C6.83332 28.4833 13.1667 33.3333 20 33.3333C26.8333 33.3333 33.1667 28.4833 36.5333 20.6667C36.6251 20.4564 36.6725 20.2294 36.6725 20C36.6725 19.7706 36.6251 19.5436 36.5333 19.3333V19.3333ZM20 30C14.7167 30 9.71666 26.1833 6.83332 20C9.71666 13.8167 14.7167 10 20 10C25.2833 10 30.2833 13.8167 33.1667 20C30.2833 26.1833 25.2833 30 20 30V30ZM20 13.3333C18.6814 13.3333 17.3925 13.7243 16.2962 14.4569C15.1999 15.1894 14.3454 16.2306 13.8408 17.4488C13.3362 18.667 13.2042 20.0074 13.4614 21.3006C13.7187 22.5938 14.3536 23.7817 15.2859 24.7141C16.2183 25.6464 17.4062 26.2813 18.6994 26.5386C19.9926 26.7958 21.333 26.6638 22.5512 26.1592C23.7694 25.6546 24.8106 24.8001 25.5431 23.7038C26.2757 22.6075 26.6667 21.3185 26.6667 20C26.6667 18.2319 25.9643 16.5362 24.714 15.286C23.4638 14.0357 21.7681 13.3333 20 13.3333V13.3333ZM20 23.3333C19.3407 23.3333 18.6963 23.1378 18.1481 22.7716C17.5999 22.4053 17.1727 21.8847 16.9204 21.2756C16.6681 20.6665 16.6021 19.9963 16.7307 19.3497C16.8593 18.7031 17.1768 18.1092 17.643 17.643C18.1091 17.1768 18.7031 16.8593 19.3497 16.7307C19.9963 16.6021 20.6665 16.6681 21.2756 16.9204C21.8847 17.1727 22.4053 17.5999 22.7716 18.1481C23.1378 18.6963 23.3333 19.3407 23.3333 20C23.3333 20.8841 22.9821 21.7319 22.357 22.357C21.7319 22.9821 20.884 23.3333 20 23.3333Z" fill="white"/>
</svg>
