<svg width="36" height="36" viewBox="0 0 36 36" fill="none" xmlns="http://www.w3.org/2000/svg">
<path fill-rule="evenodd" clip-rule="evenodd" d="M33 18C33 9.717 26.283 3 18 3C9.717 3 3 9.717 3 18C3 26.283 9.717 33 18 33C18.0881 33 18.1758 32.9982 18.2637 32.9966V21.3197H15.041V17.564H18.2637V14.8002C18.2637 11.595 20.2204 9.85043 23.0796 9.85043C24.4487 9.85043 25.6257 9.95251 25.9688 9.99806V13.348H23.9972C22.4417 13.348 22.1405 14.0873 22.1405 15.1719V17.564H25.8598L25.375 21.3197H22.1405V32.4205C28.4102 30.6231 33 24.8468 33 18Z" fill="white"/>
</svg>
