<svg width="40" height="39" viewBox="0 0 40 39" fill="none" xmlns="http://www.w3.org/2000/svg">
<path d="M31.6667 3.25H8.33337C7.00729 3.25 5.73552 3.76361 4.79784 4.67785C3.86016 5.59209 3.33337 6.83207 3.33337 8.125V10.0262C3.33314 10.6973 3.47498 11.3611 3.75004 11.9762V12.0737C3.98551 12.5953 4.31903 13.0693 4.73337 13.4712L15 23.4162V34.125C14.9995 34.4012 15.0711 34.6729 15.2082 34.9146C15.3452 35.1563 15.5432 35.3599 15.7834 35.5062C16.0486 35.6665 16.3547 35.751 16.6667 35.75C16.9276 35.7485 17.1845 35.6872 17.4167 35.5712L24.0834 32.3212C24.3582 32.1862 24.5894 31.9796 24.7512 31.7243C24.913 31.4691 24.9991 31.1751 25 30.875V23.4162L35.2 13.4712C35.6144 13.0693 35.9479 12.5953 36.1834 12.0737V11.9762C36.4814 11.3659 36.646 10.7019 36.6667 10.0262V8.125C36.6667 6.83207 36.1399 5.59209 35.2022 4.67785C34.2646 3.76361 32.9928 3.25 31.6667 3.25ZM22.15 21.5962C21.9956 21.7481 21.8734 21.9282 21.7904 22.1262C21.7075 22.3241 21.6654 22.5361 21.6667 22.75V29.8675L18.3334 31.4925V22.75C18.3346 22.5361 18.2926 22.3241 18.2097 22.1262C18.1267 21.9282 18.0045 21.7481 17.85 21.5962L9.01671 13H30.9834L22.15 21.5962ZM33.3334 9.75H6.66671V8.125C6.66671 7.69402 6.8423 7.2807 7.15486 6.97595C7.46742 6.6712 7.89135 6.5 8.33337 6.5H31.6667C32.1087 6.5 32.5327 6.6712 32.8452 6.97595C33.1578 7.2807 33.3334 7.69402 33.3334 8.125V9.75Z" fill="white"/>
</svg>
