<svg width="40" height="39" viewBox="0 0 40 39" fill="none" xmlns="http://www.w3.org/2000/svg">
<path d="M33.6 8.125C31.8333 6.39796 29.4914 5.34388 26.9972 5.15315C24.5031 4.96243 22.0213 5.64763 20 7.085C17.8794 5.54716 15.24 4.84983 12.6132 5.13344C9.98643 5.41704 7.56741 6.66052 5.8433 8.61345C4.11919 10.5664 3.21805 13.0837 3.32135 15.6585C3.42464 18.2333 4.52471 20.6743 6.40001 22.49L16.75 32.5975C17.6167 33.4291 18.784 33.8952 20 33.8952C21.216 33.8952 22.3833 33.4291 23.25 32.5975L33.6 22.49C35.546 20.5811 36.6382 17.9989 36.6382 15.3075C36.6382 12.6161 35.546 10.0339 33.6 8.125V8.125ZM31.25 20.2475L20.9 30.3388C20.7822 30.4547 20.6421 30.5467 20.4876 30.6096C20.3331 30.6724 20.1674 30.7047 20 30.7047C19.8326 30.7047 19.6669 30.6724 19.5124 30.6096C19.358 30.5467 19.2178 30.4547 19.1 30.3388L8.75001 20.1988C7.44294 18.8961 6.71103 17.1461 6.71103 15.3238C6.71103 13.5014 7.44294 11.7514 8.75001 10.4488C10.0819 9.16661 11.8783 8.44768 13.75 8.44768C15.6217 8.44768 17.4181 9.16661 18.75 10.4488C18.905 10.6011 19.0893 10.722 19.2924 10.8045C19.4955 10.8869 19.7133 10.9294 19.9333 10.9294C20.1534 10.9294 20.3712 10.8869 20.5743 10.8045C20.7774 10.722 20.9617 10.6011 21.1167 10.4488C22.4486 9.16661 24.245 8.44768 26.1167 8.44768C27.9884 8.44768 29.7848 9.16661 31.1167 10.4488C32.4417 11.7344 33.1977 13.4748 33.2226 15.2972C33.2475 17.1197 32.5394 18.8791 31.25 20.1988V20.2475Z" fill="white"/>
</svg>
