<svg width="39" height="39" viewBox="0 0 39 39" fill="none" xmlns="http://www.w3.org/2000/svg">
<path d="M32.76 8.12507C31.0374 6.39803 28.754 5.34395 26.3223 5.15322C23.8905 4.9625 21.4707 5.6477 19.5 7.08507C17.4324 5.54723 14.8589 4.8499 12.2978 5.13351C9.73671 5.41711 7.37817 6.66058 5.69717 8.61352C4.01616 10.5665 3.13755 13.0838 3.23826 15.6586C3.33898 18.2334 4.41154 20.6744 6.23996 22.4901L16.3312 32.5976C17.1762 33.4292 18.3143 33.8953 19.5 33.8953C20.6856 33.8953 21.8237 33.4292 22.6687 32.5976L32.76 22.4901C34.6573 20.5811 35.7222 17.999 35.7222 15.3076C35.7222 12.6161 34.6573 10.034 32.76 8.12507Z" fill="white"/>
</svg>
