<svg width="39" height="40" viewBox="0 0 39 40" fill="none" xmlns="http://www.w3.org/2000/svg">
<path d="M19.5 3.33333C16.2861 3.33333 13.1443 4.31081 10.472 6.14217C7.79969 7.97353 5.71689 10.5765 4.48697 13.6219C3.25704 16.6674 2.93524 20.0185 3.56225 23.2515C4.18926 26.4845 5.73692 29.4542 8.00952 31.7851C10.2821 34.116 13.1776 35.7033 16.3298 36.3464C19.482 36.9895 22.7493 36.6595 25.7186 35.398C28.6879 34.1365 31.2258 32.0003 33.0114 29.2595C34.797 26.5187 35.75 23.2964 35.75 20C35.7453 15.5812 34.0317 11.3448 30.9853 8.22024C27.9388 5.09569 23.8083 3.33818 19.5 3.33333V3.33333ZM19.5 33.3333C16.9289 33.3333 14.4154 32.5513 12.2776 31.0863C10.1398 29.6212 8.47351 27.5388 7.48957 25.1024C6.50563 22.6661 6.24819 19.9852 6.7498 17.3988C7.25141 14.8124 8.48954 12.4366 10.3076 10.5719C12.1257 8.7072 14.4421 7.43733 16.9638 6.92286C19.4856 6.40839 22.0995 6.67243 24.4749 7.6816C26.8503 8.69077 28.8807 10.3997 30.3091 12.5924C31.7376 14.785 32.5 17.3629 32.5 20C32.4957 23.5349 31.1247 26.9237 28.6876 29.4232C26.2506 31.9227 22.9465 33.3289 19.5 33.3333ZM19.5 19.1667C19.069 19.1667 18.6557 19.3423 18.351 19.6548C18.0462 19.9674 17.875 20.3913 17.875 20.8333V25.8333C17.875 26.2754 18.0462 26.6993 18.351 27.0118C18.6557 27.3244 19.069 27.5 19.5 27.5C19.931 27.5 20.3443 27.3244 20.6491 27.0118C20.9538 26.6993 21.125 26.2754 21.125 25.8333V20.8333C21.125 20.3913 20.9538 19.9674 20.6491 19.6548C20.3443 19.3423 19.931 19.1667 19.5 19.1667ZM19.5 12.5C19.0983 12.5 18.7055 12.6222 18.3715 12.8511C18.0375 13.08 17.7771 13.4054 17.6234 13.7861C17.4696 14.1668 17.4294 14.5856 17.5078 14.9898C17.5862 15.3939 17.7796 15.7651 18.0637 16.0565C18.3478 16.3478 18.7097 16.5462 19.1037 16.6266C19.4978 16.707 19.9062 16.6658 20.2773 16.5081C20.6485 16.3504 20.9657 16.0834 21.1889 15.7408C21.4121 15.3982 21.5313 14.9954 21.5313 14.5833C21.5313 14.0308 21.3173 13.5009 20.9363 13.1102C20.5554 12.7195 20.0387 12.5 19.5 12.5V12.5Z" fill="white"/>
</svg>
