<svg width="50" height="50" viewBox="0 0 50 50" fill="none" xmlns="http://www.w3.org/2000/svg">
<path fill-rule="evenodd" clip-rule="evenodd" d="M27.6832 4.16695C30.9808 4.17593 31.7877 4.20816 33.6055 4.29444C35.82 4.39205 37.3344 4.75009 38.6613 5.26297C40.0454 5.78381 41.3073 6.60608 42.3495 7.66428C43.4162 8.70627 44.2304 9.95971 44.7596 11.3597C45.2726 12.6787 45.6307 14.2008 45.7283 16.4148C45.812 18.3196 45.83 19.112 45.8335 22.8622L45.8338 26.1414C45.8303 30.7688 45.8027 31.5267 45.7121 33.5903C45.6144 35.8043 45.256 37.3185 44.7434 38.6454C43.6605 41.4454 41.446 43.6594 38.6451 44.7421C37.3262 45.255 35.8038 45.613 33.5893 45.7107C31.3666 45.8086 30.6583 45.8328 24.9998 45.8328L24.4122 45.8327C19.2889 45.8309 18.5534 45.8051 16.4104 45.7107C14.1956 45.613 12.6815 45.255 11.3543 44.7421C9.97023 44.2213 8.70827 43.399 7.66608 42.3408C6.60766 41.2988 5.78555 40.0454 5.25634 38.6454C4.74335 37.3264 4.38493 35.8043 4.28729 33.5903C4.20709 31.7648 4.17624 30.9611 4.16779 27.5966L4.16805 22.3277C4.17703 19.0307 4.20927 18.224 4.29556 16.4065C4.3932 14.1925 4.7513 12.6787 5.26429 11.3518C5.78555 9.96797 6.60766 8.70627 7.66608 7.66428C8.70827 6.59781 9.96196 5.78381 11.3626 5.2547C12.6815 4.74214 14.2039 4.38378 16.4184 4.28617C18.2442 4.20598 19.0481 4.17514 22.4132 4.16669L27.6832 4.16695ZM27.1968 7.95095H22.8544C19.2343 7.95804 18.4783 7.98813 16.6057 8.07128C14.5785 8.16095 13.4711 8.50277 12.7384 8.78767C11.8345 9.12122 11.0204 9.65032 10.3449 10.3422C9.64456 11.01 9.11536 11.8319 8.78142 12.7356C8.49646 13.4682 8.15458 14.5671 8.06521 16.6021C7.97451 18.6295 7.94707 19.3518 7.9435 23.8612V26.1762C7.94707 30.6846 7.97451 31.4007 8.06521 33.4357C8.15458 35.4625 8.49646 36.5697 8.78142 37.3023C9.11536 38.2056 9.64456 39.0196 10.3366 39.6953C11.0042 40.3872 11.8266 40.9163 12.7301 41.2502C13.4629 41.5351 14.562 41.8769 16.5974 41.9662C18.4632 42.0497 19.224 42.0796 22.8459 42.0866H27.1857C30.806 42.0796 31.5618 42.0497 33.4344 41.9662C35.4619 41.8769 36.5689 41.5351 37.3017 41.2502C39.1173 40.55 40.5584 39.1093 41.2587 37.294C41.5436 36.5614 41.8855 35.4625 41.9752 33.4275C42.062 31.4739 42.091 30.7423 42.0963 26.6991V23.3382C42.091 19.2936 42.062 18.5557 41.9752 16.6021C41.8855 14.575 41.5436 13.4682 41.2587 12.7356C40.9247 11.8319 40.3955 11.0179 39.7035 10.3422C39.0359 9.65032 38.2135 9.12122 37.31 8.78767C36.5772 8.50277 35.4781 8.16095 33.4427 8.07128C31.5769 7.98813 30.822 7.95804 27.1968 7.95095ZM25.0078 14.2984C30.9188 14.2984 35.7141 19.0928 35.7141 25.0025C35.7141 30.9123 30.9188 35.7067 25.0078 35.7067C19.0971 35.7067 14.3015 30.9123 14.3015 25.0025C14.3015 19.0928 19.0971 14.2984 25.0078 14.2984ZM25.0078 18.059C21.1733 18.059 18.0629 21.1685 18.0629 25.0025C18.0629 28.8366 21.1733 31.9461 25.0078 31.9461C28.8426 31.9461 31.9527 28.8366 31.9527 25.0025C31.9527 21.1685 28.8426 18.059 25.0078 18.059ZM36.1374 11.3763C37.518 11.3763 38.6371 12.4949 38.6371 13.8752C38.6371 15.2552 37.518 16.3741 36.1374 16.3741C34.7571 16.3741 33.638 15.2552 33.638 13.8752C33.638 12.4949 34.7571 11.3763 36.1374 11.3763Z" fill="white"/>
</svg>
