<svg width="39" height="39" viewBox="0 0 39 39" fill="none" xmlns="http://www.w3.org/2000/svg">
<path d="M19.5 21.125C19.069 21.125 18.6557 21.2962 18.351 21.601C18.0462 21.9057 17.875 22.319 17.875 22.75V27.625C17.875 28.056 18.0462 28.4693 18.351 28.774C18.6557 29.0788 19.069 29.25 19.5 29.25C19.931 29.25 20.3443 29.0788 20.649 28.774C20.9538 28.4693 21.125 28.056 21.125 27.625V22.75C21.125 22.319 20.9538 21.9057 20.649 21.601C20.3443 21.2962 19.931 21.125 19.5 21.125ZM27.625 14.625V11.375C27.625 9.22012 26.769 7.15349 25.2452 5.62976C23.7215 4.10602 21.6549 3.25 19.5 3.25C17.3451 3.25 15.2785 4.10602 13.7548 5.62976C12.231 7.15349 11.375 9.22012 11.375 11.375V14.625C10.0821 14.625 8.84209 15.1386 7.92785 16.0529C7.01361 16.9671 6.5 18.2071 6.5 19.5V30.875C6.5 32.1679 7.01361 33.4079 7.92785 34.3221C8.84209 35.2364 10.0821 35.75 11.375 35.75H27.625C28.9179 35.75 30.1579 35.2364 31.0721 34.3221C31.9864 33.4079 32.5 32.1679 32.5 30.875V19.5C32.5 18.2071 31.9864 16.9671 31.0721 16.0529C30.1579 15.1386 28.9179 14.625 27.625 14.625ZM14.625 11.375C14.625 10.0821 15.1386 8.84209 16.0529 7.92785C16.9671 7.01361 18.2071 6.5 19.5 6.5C20.7929 6.5 22.0329 7.01361 22.9471 7.92785C23.8614 8.84209 24.375 10.0821 24.375 11.375V14.625H14.625V11.375ZM29.25 30.875C29.25 31.306 29.0788 31.7193 28.774 32.024C28.4693 32.3288 28.056 32.5 27.625 32.5H11.375C10.944 32.5 10.5307 32.3288 10.226 32.024C9.92121 31.7193 9.75 31.306 9.75 30.875V19.5C9.75 19.069 9.92121 18.6557 10.226 18.351C10.5307 18.0462 10.944 17.875 11.375 17.875H27.625C28.056 17.875 28.4693 18.0462 28.774 18.351C29.0788 18.6557 29.25 19.069 29.25 19.5V30.875Z" fill="white"/>
</svg>
