<svg width="56" height="34" viewBox="0 0 56 34" fill="none" xmlns="http://www.w3.org/2000/svg">
<path fill-rule="evenodd" clip-rule="evenodd" d="M34.6773 27.742C40.8059 27.742 45.7741 22.7738 45.7741 16.6452C45.7741 10.5166 40.8059 5.54843 34.6773 5.54843C28.5488 5.54843 23.5806 10.5166 23.5806 16.6452C23.5806 22.7738 28.5488 27.742 34.6773 27.742Z" fill="#FFAB00"/>
<path fill-rule="evenodd" clip-rule="evenodd" d="M20.8062 27.7419C26.9348 27.7419 31.903 22.7737 31.903 16.6452C31.903 10.5166 26.9348 5.54839 20.8062 5.54839C14.6777 5.54839 9.70947 10.5166 9.70947 16.6452C9.70947 22.7737 14.6777 27.7419 20.8062 27.7419Z" fill="#FF3B30"/>
<path fill-rule="evenodd" clip-rule="evenodd" d="M27.7419 7.98224C25.205 10.0159 23.5806 13.1408 23.5806 16.6452C23.5806 20.1495 25.205 23.2745 27.7419 25.3081C30.2788 23.2745 31.9031 20.1495 31.9031 16.6452C31.9031 13.1408 30.2788 10.0159 27.7419 7.98224Z" fill="#FF7200"/>
<rect x="0.346774" y="0.346774" width="54.7903" height="32.5968" rx="6.58871" stroke="white" stroke-width="0.693548"/>
</svg>
