<svg width="40" height="39" viewBox="0 0 40 39" fill="none" xmlns="http://www.w3.org/2000/svg">
<path d="M32.4 21.125C32.0334 21.125 31.65 21.0112 31.2834 20.93C30.5409 20.7705 29.8112 20.5587 29.1 20.2962C28.3269 20.022 27.477 20.0362 26.7139 20.3362C25.9508 20.6362 25.3285 21.2008 24.9667 21.9212L24.6 22.6525C22.9767 21.772 21.485 20.6785 20.1667 19.4025C18.858 18.1172 17.7364 16.6627 16.8334 15.08L17.5334 14.625C18.2723 14.2722 18.8513 13.6655 19.159 12.9215C19.4667 12.1775 19.4813 11.3489 19.2 10.595C18.9354 9.90018 18.7183 9.18905 18.55 8.46625C18.4667 8.10875 18.4 7.735 18.35 7.36125C18.1477 6.21663 17.5328 5.18008 16.6161 4.43826C15.6994 3.69645 14.5412 3.29811 13.35 3.315H8.35005C7.63177 3.30842 6.92046 3.45282 6.26456 3.73836C5.60866 4.0239 5.02356 4.44388 4.5491 4.96971C4.07463 5.49553 3.72194 6.11486 3.51503 6.78553C3.30812 7.45621 3.25184 8.16247 3.35005 8.85625C4.23794 15.664 7.42676 21.9893 12.4128 26.833C17.3988 31.6768 23.8979 34.7628 30.8834 35.6037H31.5167C32.7457 35.6055 33.9324 35.1659 34.85 34.3687C35.3773 33.9089 35.7985 33.3453 36.0858 32.715C36.3731 32.0847 36.52 31.4022 36.5167 30.7125V25.8375C36.4963 24.7087 36.0747 23.6219 35.3239 22.7625C34.5732 21.903 33.5397 21.3243 32.4 21.125V21.125ZM33.2334 30.875C33.2331 31.1057 33.1824 31.3337 33.0847 31.5439C32.987 31.754 32.8445 31.9415 32.6667 32.0937C32.481 32.2514 32.2633 32.3691 32.0278 32.4391C31.7923 32.5091 31.5443 32.5298 31.3 32.5C25.0582 31.7197 19.2604 28.9355 14.8212 24.5867C10.382 20.2379 7.55406 14.5719 6.78338 8.4825C6.75685 8.24447 6.7801 8.00366 6.85172 7.77463C6.92333 7.54561 7.04183 7.33312 7.20005 7.15C7.35623 6.97666 7.54848 6.83774 7.76401 6.74248C7.97954 6.64721 8.2134 6.59779 8.45005 6.5975H13.45C13.8376 6.58909 14.2161 6.71268 14.5203 6.94699C14.8245 7.1813 15.0354 7.51168 15.1167 7.88125C15.1834 8.32542 15.2667 8.76417 15.3667 9.1975C15.5592 10.0541 15.8155 10.8959 16.1334 11.7162L13.8 12.7725C13.6005 12.8617 13.4211 12.9885 13.272 13.1456C13.1229 13.3026 13.007 13.4869 12.9312 13.6877C12.8553 13.8885 12.8208 14.102 12.8298 14.3158C12.8388 14.5296 12.8909 14.7396 12.9834 14.9337C15.382 19.9432 19.5121 23.97 24.65 26.3088C25.0558 26.4713 25.5109 26.4713 25.9167 26.3088C26.1246 26.2363 26.3156 26.1242 26.4787 25.9792C26.6417 25.8341 26.7737 25.6589 26.8667 25.4637L27.9 23.1888C28.7617 23.4892 29.641 23.7388 30.5334 23.9362C30.9778 24.0337 31.4278 24.115 31.8834 24.18C32.2624 24.2593 32.6013 24.4649 32.8416 24.7615C33.0819 25.0581 33.2087 25.4271 33.2 25.805L33.2334 30.875Z" fill="white"/>
</svg>
