<svg width="40" height="40" viewBox="0 0 40 40" fill="none" xmlns="http://www.w3.org/2000/svg">
<path d="M31.6666 18.3333H21.6666V8.33334C21.6666 7.89131 21.491 7.46739 21.1785 7.15483C20.8659 6.84227 20.442 6.66667 20 6.66667C19.5579 6.66667 19.134 6.84227 18.8214 7.15483C18.5089 7.46739 18.3333 7.89131 18.3333 8.33334V18.3333H8.33329C7.89127 18.3333 7.46734 18.5089 7.15478 18.8215C6.84222 19.1341 6.66663 19.558 6.66663 20C6.66663 20.442 6.84222 20.866 7.15478 21.1785C7.46734 21.4911 7.89127 21.6667 8.33329 21.6667H18.3333V31.6667C18.3333 32.1087 18.5089 32.5326 18.8214 32.8452C19.134 33.1577 19.5579 33.3333 20 33.3333C20.442 33.3333 20.8659 33.1577 21.1785 32.8452C21.491 32.5326 21.6666 32.1087 21.6666 31.6667V21.6667H31.6666C32.1087 21.6667 32.5326 21.4911 32.8451 21.1785C33.1577 20.866 33.3333 20.442 33.3333 20C33.3333 19.558 33.1577 19.1341 32.8451 18.8215C32.5326 18.5089 32.1087 18.3333 31.6666 18.3333Z" fill="white"/>
</svg>
