<svg width="40" height="39" viewBox="0 0 40 39" fill="none" xmlns="http://www.w3.org/2000/svg">
<path d="M36.1833 32.9712L30 26.9912C32.4001 24.0734 33.5625 20.3699 33.248 16.6421C32.9335 12.9144 31.1661 9.44577 28.3092 6.94954C25.4522 4.45332 21.723 3.1192 17.8882 3.22151C14.0534 3.32382 10.4045 4.85479 7.69187 7.4996C4.97923 10.1444 3.40901 13.7021 3.30408 17.441C3.19915 21.1799 4.56747 24.816 7.1277 27.6015C9.68793 30.387 13.2455 32.1102 17.0688 32.4168C20.8921 32.7234 24.6906 31.5902 27.6833 29.25L33.8166 35.23C33.9716 35.3823 34.1559 35.5032 34.359 35.5857C34.5621 35.6682 34.7799 35.7107 35 35.7107C35.22 35.7107 35.4378 35.6682 35.6409 35.5857C35.844 35.5032 36.0284 35.3823 36.1833 35.23C36.4837 34.927 36.6516 34.522 36.6516 34.1006C36.6516 33.6792 36.4837 33.2743 36.1833 32.9712V32.9712ZM18.3333 29.25C16.0258 29.25 13.7702 28.5829 11.8516 27.333C9.93307 26.0831 8.43772 24.3065 7.5547 22.228C6.67168 20.1495 6.44064 17.8624 6.8908 15.6558C7.34096 13.4493 8.4521 11.4225 10.0837 9.83166C11.7153 8.24084 13.7941 7.15747 16.0572 6.71856C18.3204 6.27966 20.6661 6.50492 22.7979 7.36587C24.9297 8.22681 26.7518 9.68478 28.0338 11.5554C29.3157 13.426 30 15.6252 30 17.875C30 20.8918 28.7708 23.7851 26.5829 25.9183C24.395 28.0516 21.4275 29.25 18.3333 29.25V29.25Z" fill="white"/>
</svg>
