<svg width="50" height="50" viewBox="0 0 50 50" fill="none" xmlns="http://www.w3.org/2000/svg">
<path d="M26.128 34.161C25.4155 33.486 24.5843 32.9672 23.6765 32.6438L21.7733 25.2328L44.439 18.8922L46.8671 28.3547L26.128 34.161ZM18.9124 14.0922L34.0233 9.86565L36.453 19.3313L21.3437 23.5578L18.9124 14.0922ZM19.5905 32.5016C19.1687 32.6203 18.7765 32.7891 18.3952 32.975L11.7327 7.01409H9.22646C8.9749 7.56252 8.44834 7.94846 7.82647 7.94846H4.69834C3.83428 7.94846 3.13428 7.21565 3.13428 6.31409C3.13428 5.41252 3.83428 4.68127 4.69834 4.68127H7.82647C8.35147 4.68127 8.79209 4.96877 9.07646 5.37971H13.889V5.4594L13.9608 5.43752L20.8515 32.286C20.4312 32.325 20.0108 32.386 19.5905 32.5016ZM19.9952 34.0797C22.9155 33.2625 25.9171 35.0719 26.6999 38.1235C27.4827 41.1719 25.7499 44.3063 22.828 45.1235C19.9077 45.9375 16.9062 44.1282 16.1233 41.0797C15.3405 38.0313 17.0749 34.8969 19.9952 34.0797ZM19.1718 40.3344C19.5062 41.6406 20.7936 42.4156 22.0452 42.0641C23.2968 41.7125 24.039 40.3703 23.7046 39.0641C23.3702 37.7578 22.0827 36.9828 20.8312 37.3313C19.578 37.6828 18.8358 39.0266 19.1718 40.3344ZM46.6718 33.9078L28.4155 39.0141C28.3827 38.5781 28.3218 38.1375 28.2093 37.6985C28.0983 37.2594 27.9374 36.8469 27.7577 36.45L45.9187 31.3719L46.6718 33.9078Z" fill="white"/>
</svg>
