<svg width="40" height="40" viewBox="0 0 40 40" fill="none" xmlns="http://www.w3.org/2000/svg">
<path d="M31.6666 11.6667H26.6666V10C26.6666 8.23189 25.9642 6.53619 24.714 5.28595C23.4638 4.03571 21.7681 3.33333 20 3.33333C18.2318 3.33333 16.5362 4.03571 15.2859 5.28595C14.0357 6.53619 13.3333 8.23189 13.3333 10V11.6667H8.33329C7.89127 11.6667 7.46734 11.8423 7.15478 12.1548C6.84222 12.4674 6.66663 12.8913 6.66663 13.3333V31.6667C6.66663 32.9927 7.19341 34.2645 8.13109 35.2022C9.06877 36.1399 10.3405 36.6667 11.6666 36.6667H28.3333C29.6594 36.6667 30.9311 36.1399 31.8688 35.2022C32.8065 34.2645 33.3333 32.9927 33.3333 31.6667V13.3333C33.3333 12.8913 33.1577 12.4674 32.8451 12.1548C32.5326 11.8423 32.1087 11.6667 31.6666 11.6667ZM16.6666 10C16.6666 9.11594 17.0178 8.26809 17.6429 7.64297C18.2681 7.01785 19.1159 6.66666 20 6.66666C20.884 6.66666 21.7319 7.01785 22.357 7.64297C22.9821 8.26809 23.3333 9.11594 23.3333 10V11.6667H16.6666V10ZM30 31.6667C30 32.1087 29.8244 32.5326 29.5118 32.8452C29.1992 33.1577 28.7753 33.3333 28.3333 33.3333H11.6666C11.2246 33.3333 10.8007 33.1577 10.4881 32.8452C10.1756 32.5326 9.99996 32.1087 9.99996 31.6667V15H13.3333V16.6667C13.3333 17.1087 13.5089 17.5326 13.8214 17.8452C14.134 18.1577 14.5579 18.3333 15 18.3333C15.442 18.3333 15.8659 18.1577 16.1785 17.8452C16.491 17.5326 16.6666 17.1087 16.6666 16.6667V15H23.3333V16.6667C23.3333 17.1087 23.5089 17.5326 23.8214 17.8452C24.134 18.1577 24.5579 18.3333 25 18.3333C25.442 18.3333 25.8659 18.1577 26.1785 17.8452C26.491 17.5326 26.6666 17.1087 26.6666 16.6667V15H30V31.6667Z" fill="white"/>
</svg>
