<svg width="39" height="40" viewBox="0 0 39 40" fill="none" xmlns="http://www.w3.org/2000/svg">
<path d="M22.75 30C23.1809 30 23.5943 29.8244 23.899 29.5118C24.2038 29.1993 24.375 28.7754 24.375 28.3333V25C24.375 24.558 24.2038 24.134 23.899 23.8215C23.5943 23.5089 23.1809 23.3333 22.75 23.3333C22.319 23.3333 21.9057 23.5089 21.6009 23.8215C21.2962 24.134 21.125 24.558 21.125 25V28.3333C21.125 28.7754 21.2962 29.1993 21.6009 29.5118C21.9057 29.8244 22.319 30 22.75 30ZM16.25 30C16.6809 30 17.0943 29.8244 17.399 29.5118C17.7038 29.1993 17.875 28.7754 17.875 28.3333V25C17.875 24.558 17.7038 24.134 17.399 23.8215C17.0943 23.5089 16.6809 23.3333 16.25 23.3333C15.819 23.3333 15.4057 23.5089 15.1009 23.8215C14.7962 24.134 14.625 24.558 14.625 25V28.3333C14.625 28.7754 14.7962 29.1993 15.1009 29.5118C15.4057 29.8244 15.819 30 16.25 30ZM30.875 9.99999H28.6325L25.8212 4.24999C25.7353 4.03842 25.6078 3.84728 25.4466 3.68854C25.2854 3.5298 25.0941 3.40686 24.8845 3.3274C24.6749 3.24794 24.4515 3.21367 24.2284 3.22674C24.0053 3.23981 23.7873 3.29993 23.5879 3.40334C23.3884 3.50676 23.212 3.65124 23.0694 3.82777C22.9269 4.00431 22.8215 4.20909 22.7596 4.42932C22.6977 4.64955 22.6808 4.8805 22.7099 5.10774C22.739 5.33498 22.8135 5.55362 22.9287 5.74999L24.9925 9.99999H14.0075L16.0712 5.74999C16.2289 5.36151 16.2376 4.9262 16.0953 4.53147C15.9531 4.13675 15.6705 3.81182 15.3043 3.62194C14.9382 3.43205 14.5155 3.39126 14.1212 3.50776C13.727 3.62426 13.3903 3.88941 13.1787 4.24999L10.3675 9.99999H8.12497C6.9764 10.0179 5.87089 10.4512 5.00342 11.2235C4.13595 11.9959 3.56225 13.0575 3.3835 14.2213C3.20474 15.3851 3.43242 16.5763 4.02637 17.5847C4.62032 18.5932 5.5424 19.3541 6.62997 19.7333L7.83247 32.1667C7.95373 33.4043 8.5204 34.5511 9.42184 35.3832C10.3233 36.2153 11.4947 36.6729 12.7075 36.6667H26.325C27.5377 36.6729 28.7092 36.2153 29.6106 35.3832C30.512 34.5511 31.0787 33.4043 31.2 32.1667L32.4025 19.7333C33.4924 19.353 34.4159 18.5893 35.0095 17.5775C35.603 16.5657 35.8282 15.371 35.6453 14.2052C35.4623 13.0394 34.883 11.9776 34.0099 11.208C33.1368 10.4383 32.0262 10.0103 30.875 9.99999V9.99999ZM27.9337 31.8333C27.8933 32.2459 27.7044 32.6281 27.4039 32.9055C27.1035 33.1829 26.713 33.3354 26.3087 33.3333H12.6912C12.287 33.3354 11.8965 33.1829 11.596 32.9055C11.2955 32.6281 11.1066 32.2459 11.0662 31.8333L9.91247 20H29.0875L27.9337 31.8333ZM30.875 16.6667H8.12497C7.69399 16.6667 7.28067 16.4911 6.97592 16.1785C6.67117 15.8659 6.49997 15.442 6.49997 15C6.49997 14.558 6.67117 14.134 6.97592 13.8215C7.28067 13.5089 7.69399 13.3333 8.12497 13.3333H30.875C31.3059 13.3333 31.7193 13.5089 32.024 13.8215C32.3288 14.134 32.5 14.558 32.5 15C32.5 15.442 32.3288 15.8659 32.024 16.1785C31.7193 16.4911 31.3059 16.6667 30.875 16.6667Z" fill="white"/>
</svg>
