<svg width="40" height="39" viewBox="0 0 40 39" fill="none" xmlns="http://www.w3.org/2000/svg">
<path d="M33.3334 13.2925V4.875C33.3334 4.44402 33.1578 4.0307 32.8452 3.72595C32.5326 3.4212 32.1087 3.25 31.6667 3.25C31.2247 3.25 30.8007 3.4212 30.4882 3.72595C30.1756 4.0307 30 4.44402 30 4.875V13.2925C29.0348 13.6341 28.2008 14.2571 27.6114 15.077C27.0221 15.8969 26.7059 16.8738 26.7059 17.875C26.7059 18.8762 27.0221 19.8531 27.6114 20.673C28.2008 21.4929 29.0348 22.1159 30 22.4575V34.125C30 34.556 30.1756 34.9693 30.4882 35.274C30.8007 35.5788 31.2247 35.75 31.6667 35.75C32.1087 35.75 32.5326 35.5788 32.8452 35.274C33.1578 34.9693 33.3334 34.556 33.3334 34.125V22.4575C34.2986 22.1159 35.1326 21.4929 35.722 20.673C36.3113 19.8531 36.6275 18.8762 36.6275 17.875C36.6275 16.8738 36.3113 15.8969 35.722 15.077C35.1326 14.2571 34.2986 13.6341 33.3334 13.2925V13.2925ZM31.6667 19.5C31.3371 19.5 31.0148 19.4047 30.7407 19.2261C30.4667 19.0476 30.253 18.7938 30.1269 18.4969C30.0007 18.1999 29.9677 17.8732 30.032 17.558C30.0964 17.2428 30.2551 16.9532 30.4882 16.726C30.7213 16.4987 31.0182 16.3439 31.3415 16.2812C31.6648 16.2185 31.9999 16.2507 32.3045 16.3737C32.609 16.4967 32.8693 16.705 33.0525 16.9722C33.2356 17.2394 33.3334 17.5536 33.3334 17.875C33.3334 18.306 33.1578 18.7193 32.8452 19.024C32.5326 19.3288 32.1087 19.5 31.6667 19.5ZM21.6667 23.0425V4.875C21.6667 4.44402 21.4911 4.0307 21.1785 3.72595C20.866 3.4212 20.442 3.25 20 3.25C19.558 3.25 19.1341 3.4212 18.8215 3.72595C18.5089 4.0307 18.3334 4.44402 18.3334 4.875V23.0425C17.3681 23.3841 16.5341 24.0071 15.9448 24.827C15.3554 25.6469 15.0392 26.6238 15.0392 27.625C15.0392 28.6262 15.3554 29.6031 15.9448 30.423C16.5341 31.2429 17.3681 31.8659 18.3334 32.2075V34.125C18.3334 34.556 18.5089 34.9693 18.8215 35.274C19.1341 35.5788 19.558 35.75 20 35.75C20.442 35.75 20.866 35.5788 21.1785 35.274C21.4911 34.9693 21.6667 34.556 21.6667 34.125V32.2075C22.6319 31.8659 23.4659 31.2429 24.0553 30.423C24.6446 29.6031 24.9608 28.6262 24.9608 27.625C24.9608 26.6238 24.6446 25.6469 24.0553 24.827C23.4659 24.0071 22.6319 23.3841 21.6667 23.0425ZM20 29.25C19.6704 29.25 19.3482 29.1547 19.0741 28.9761C18.8 28.7976 18.5864 28.5438 18.4602 28.2469C18.3341 27.9499 18.3011 27.6232 18.3654 27.308C18.4297 26.9928 18.5884 26.7032 18.8215 26.476C19.0546 26.2487 19.3516 26.0939 19.6749 26.0312C19.9982 25.9685 20.3333 26.0007 20.6378 26.1237C20.9424 26.2467 21.2027 26.455 21.3858 26.7222C21.5689 26.9894 21.6667 27.3036 21.6667 27.625C21.6667 28.056 21.4911 28.4693 21.1785 28.774C20.866 29.0788 20.442 29.25 20 29.25ZM10 10.0425V4.875C10 4.44402 9.82442 4.0307 9.51186 3.72595C9.1993 3.4212 8.77538 3.25 8.33335 3.25C7.89133 3.25 7.4674 3.4212 7.15484 3.72595C6.84228 4.0307 6.66669 4.44402 6.66669 4.875V10.0425C5.70143 10.3841 4.86745 11.0071 4.27809 11.827C3.68872 12.6469 3.37256 13.6238 3.37256 14.625C3.37256 15.6262 3.68872 16.6031 4.27809 17.423C4.86745 18.2429 5.70143 18.8659 6.66669 19.2075V34.125C6.66669 34.556 6.84228 34.9693 7.15484 35.274C7.4674 35.5788 7.89133 35.75 8.33335 35.75C8.77538 35.75 9.1993 35.5788 9.51186 35.274C9.82442 34.9693 10 34.556 10 34.125V19.2075C10.9653 18.8659 11.7993 18.2429 12.3886 17.423C12.978 16.6031 13.2941 15.6262 13.2941 14.625C13.2941 13.6238 12.978 12.6469 12.3886 11.827C11.7993 11.0071 10.9653 10.3841 10 10.0425ZM8.33335 16.25C8.00372 16.25 7.68148 16.1547 7.4074 15.9761C7.13332 15.7976 6.9197 15.5438 6.79355 15.2469C6.66741 14.9499 6.6344 14.6232 6.69871 14.308C6.76302 13.9928 6.92175 13.7032 7.15484 13.476C7.38793 13.2487 7.6849 13.0939 8.0082 13.0312C8.3315 12.9685 8.66661 13.0007 8.97116 13.1237C9.2757 13.2467 9.536 13.455 9.71914 13.7222C9.90227 13.9894 10 14.3036 10 14.625C10 15.056 9.82442 15.4693 9.51186 15.774C9.1993 16.0788 8.77538 16.25 8.33335 16.25Z" fill="white"/>
</svg>
