<svg width="40" height="40" viewBox="0 0 40 40" fill="none" xmlns="http://www.w3.org/2000/svg">
<path d="M33.3333 10H26.6667V8.33333C26.6667 7.00725 26.1399 5.73548 25.2022 4.79779C24.2645 3.86011 22.9927 3.33333 21.6667 3.33333H18.3333C17.0073 3.33333 15.7355 3.86011 14.7978 4.79779C13.8601 5.73548 13.3333 7.00725 13.3333 8.33333V10H6.66667C6.22464 10 5.80072 10.1756 5.48816 10.4882C5.17559 10.8007 5 11.2246 5 11.6667C5 12.1087 5.17559 12.5326 5.48816 12.8452C5.80072 13.1577 6.22464 13.3333 6.66667 13.3333H8.33333V31.6667C8.33333 32.9927 8.86012 34.2645 9.7978 35.2022C10.7355 36.1399 12.0073 36.6667 13.3333 36.6667H26.6667C27.9927 36.6667 29.2645 36.1399 30.2022 35.2022C31.1399 34.2645 31.6667 32.9927 31.6667 31.6667V13.3333H33.3333C33.7754 13.3333 34.1993 13.1577 34.5118 12.8452C34.8244 12.5326 35 12.1087 35 11.6667C35 11.2246 34.8244 10.8007 34.5118 10.4882C34.1993 10.1756 33.7754 10 33.3333 10ZM16.6667 8.33333C16.6667 7.8913 16.8423 7.46738 17.1548 7.15482C17.4674 6.84226 17.8913 6.66666 18.3333 6.66666H21.6667C22.1087 6.66666 22.5326 6.84226 22.8452 7.15482C23.1577 7.46738 23.3333 7.8913 23.3333 8.33333V10H16.6667V8.33333ZM28.3333 31.6667C28.3333 32.1087 28.1577 32.5326 27.8452 32.8452C27.5326 33.1577 27.1087 33.3333 26.6667 33.3333H13.3333C12.8913 33.3333 12.4674 33.1577 12.1548 32.8452C11.8423 32.5326 11.6667 32.1087 11.6667 31.6667V13.3333H28.3333V31.6667Z" fill="white"/>
</svg>
