<svg width="56" height="34" viewBox="0 0 56 34" fill="none" xmlns="http://www.w3.org/2000/svg">
<path fill-rule="evenodd" clip-rule="evenodd" d="M35.0763 9.70968C36.4672 9.70968 37.5921 10.0224 38.3013 10.3056L37.8123 13.3281L37.4871 13.1795C36.8365 12.8965 35.9776 12.6136 34.8087 12.6435C33.389 12.6435 32.7524 13.2537 32.7376 13.8494C32.7376 14.5047 33.5078 14.9365 34.7654 15.577C36.837 16.5746 37.7979 17.7956 37.7836 19.3889C37.7545 22.2927 35.2983 24.1691 31.5254 24.1691C29.9123 24.1541 28.3586 23.8109 27.5153 23.4242L28.0185 20.2821L28.4919 20.5058C29.6609 21.0275 30.43 21.2503 31.8656 21.2503C32.9008 21.2503 34.0108 20.8181 34.0249 19.8804C34.0249 19.2698 33.552 18.8227 32.1609 18.1377C30.7999 17.4674 28.9801 16.3508 29.0096 14.3404C29.025 11.6156 31.5254 9.70968 35.0763 9.70968ZM21.6709 23.9608H25.2666L27.5154 9.96366H23.9199L21.6709 23.9608ZM43.08 19.0021C43.3761 18.198 44.5155 15.0858 44.5155 15.0858C44.5095 15.0979 44.5565 14.9667 44.6264 14.7718L44.6266 14.7712L44.6269 14.7702C44.7301 14.4822 44.8829 14.0559 44.9886 13.7458L45.2399 14.9518C45.2399 14.9518 45.9208 18.3023 46.0687 19.0021H43.08ZM47.5184 9.96366H44.7371C43.8794 9.96366 43.2278 10.2166 42.8578 11.125L37.5169 23.9606H41.2897C41.2897 23.9606 41.9108 22.233 42.0443 21.8609H46.6609C46.7641 22.3523 47.0899 23.9606 47.0899 23.9606H50.4192L47.5184 9.96366ZM18.6676 9.96366L15.1462 19.5084L14.7614 17.5726L14.761 17.5712L13.5039 11.1409C13.2969 10.247 12.6606 9.99383 11.8765 9.96434H6.09141L6.03223 10.2472C7.44322 10.6103 8.70521 11.1337 9.81098 11.7844L13.0156 23.9459H16.8179L22.4697 9.96366H18.6676Z" fill="#00579F"/>
<rect x="0.830661" y="0.346774" width="54.7903" height="33.1852" rx="6.58871" stroke="white" stroke-width="0.693548"/>
</svg>
